<svg width="700" height="320" viewBox="0 0 700 320" fill="none" xmlns="http://www.w3.org/2000/svg">
<mask id="mask0_2_379" style="mask-type:luminance" maskUnits="userSpaceOnUse" x="0" y="0" width="700" height="320">
<path d="M684 0H16C7.16344 0 0 7.16344 0 16V304C0 312.837 7.16344 320 16 320H684C692.837 320 700 312.837 700 304V16C700 7.16344 692.837 0 684 0Z" fill="white"/>
</mask>
<g mask="url(#mask0_2_379)">
<path d="M684 0H16C7.16344 0 0 7.16344 0 16V304C0 312.837 7.16344 320 16 320H684C692.837 320 700 312.837 700 304V16C700 7.16344 692.837 0 684 0Z" fill="url(#paint0_linear_2_379)"/>
<g opacity="0.8" filter="url(#filter0_f_2_379)">
<path d="M660 100C748.366 100 820 28.3656 820 -60C820 -148.366 748.366 -220 660 -220C571.634 -220 500 -148.366 500 -60C500 28.3656 571.634 100 660 100Z" fill="#18E244" fill-opacity="0.4"/>
</g>
<g opacity="0.8" filter="url(#filter1_f_2_379)">
<path d="M20 373C108.366 373 180 301.366 180 213C180 124.634 108.366 53 20 53C-68.3656 53 -140 124.634 -140 213C-140 301.366 -68.3656 373 20 373Z" fill="#18CAE2" fill-opacity="0.33"/>
</g>
<g opacity="0.8" filter="url(#filter2_f_2_379)">
</g>
<g opacity="0.8" filter="url(#filter3_f_2_379)">
<path d="M20 573C108.366 573 180 501.366 180 413C180 324.634 108.366 253 20 253C-68.3656 253 -140 324.634 -140 413C-140 501.366 -68.3656 573 20 573Z" fill="#4018E2" fill-opacity="0.22"/>
</g>
<path opacity="0.2" d="M0 50H700" stroke="url(#paint1_radial_2_379)" stroke-dasharray="4 4"/>
<path opacity="0.1" d="M0 82H700" stroke="url(#paint2_radial_2_379)" stroke-dasharray="4 4"/>
<path opacity="0.2" d="M239 0V320" stroke="url(#paint3_radial_2_379)" stroke-dasharray="4 4"/>
<path opacity="0.1" d="M271 0V320" stroke="url(#paint4_radial_2_379)" stroke-dasharray="4 4"/>
<path opacity="0.2" d="M461 0V320" stroke="url(#paint5_radial_2_379)" stroke-dasharray="4 4"/>
<path opacity="0.1" d="M429 0V320" stroke="url(#paint6_radial_2_379)" stroke-dasharray="4 4"/>
<path opacity="0.2" d="M0 271H700" stroke="url(#paint7_radial_2_379)" stroke-dasharray="4 4"/>
<path opacity="0.1" d="M0 239H700" stroke="url(#paint8_radial_2_379)" stroke-dasharray="4 4"/>
<g style="mix-blend-mode:overlay" opacity="0.1">
<path d="M0 160H700" stroke="url(#paint9_linear_2_379)"/>
</g>
<g style="mix-blend-mode:overlay" opacity="0.2">
<path d="M511 -1L189 321" stroke="url(#paint10_linear_2_379)"/>
</g>
<g style="mix-blend-mode:overlay" opacity="0.2">
<path d="M511 321L189 -1" stroke="url(#paint11_linear_2_379)"/>
</g>
<g style="mix-blend-mode:overlay" opacity="0.1">
<path d="M350 271C411.304 271 461 221.304 461 160C461 98.6964 411.304 49 350 49C288.696 49 239 98.6964 239 160C239 221.304 288.696 271 350 271Z" stroke="white"/>
</g>
<g style="mix-blend-mode:overlay" opacity="0.1">
<path d="M350 239C393.63 239 429 203.63 429 160C429 116.37 393.63 81 350 81C306.37 81 271 116.37 271 160C271 203.63 306.37 239 350 239Z" stroke="white"/>
</g>
</g>
<path fill-rule="evenodd" clip-rule="evenodd" d="M108.637 125.255L140.637 181.255H76.6367L108.637 125.255Z" fill="white"/>
<path d="M191.087 164.4C194.747 164.4 197.447 162.99 199.037 161.07L195.977 158.46C194.747 159.81 193.217 160.5 191.177 160.5C187.037 160.5 184.487 157.38 184.487 153.54C184.487 149.7 187.037 146.52 191.087 146.52C192.977 146.52 194.537 147.18 195.797 148.5L198.767 145.92C196.877 143.67 194.507 142.62 191.087 142.62C184.607 142.62 180.137 147.51 180.137 153.54C180.137 159.54 184.847 164.4 191.087 164.4ZM206.681 164.4C209.471 164.4 210.881 163.23 211.721 161.46V164.01H215.651V148.41H211.631V150.87C210.791 149.19 209.381 148.08 206.681 148.08C202.391 148.08 198.971 151.77 198.971 156.27C198.971 160.77 202.391 164.4 206.681 164.4ZM203.021 156.24C203.021 153.81 204.761 151.74 207.341 151.74C210.011 151.74 211.721 153.84 211.721 156.27C211.721 158.7 210.011 160.74 207.341 160.74C204.761 160.74 203.021 158.61 203.021 156.24ZM218.058 164.01H222.108V142.11H218.058V164.01ZM226.663 164.4C228.223 164.4 229.333 163.2 229.333 161.76C229.333 160.35 228.223 159.15 226.663 159.15C225.103 159.15 223.963 160.35 223.963 161.76C223.963 163.2 225.103 164.4 226.663 164.4ZM238.037 164.4C241.097 164.4 243.257 163.29 244.727 161.4L241.787 158.85C240.977 159.93 239.957 160.71 238.397 160.71C235.817 160.71 234.047 158.64 234.047 156.21C234.047 153.78 235.727 151.71 238.307 151.71C239.687 151.71 240.887 152.4 241.607 153.48L244.727 150.93C243.407 149.1 241.097 147.99 238.247 148.02C233.477 148.05 229.997 151.68 229.997 156.21C229.997 160.74 233.567 164.4 238.037 164.4ZM253.043 164.4C257.873 164.4 261.353 160.74 261.353 156.24C261.353 151.74 257.873 148.05 253.043 148.05C248.213 148.05 244.733 151.74 244.733 156.24C244.733 160.74 248.213 164.4 253.043 164.4ZM248.783 156.24C248.783 153.81 250.463 151.74 253.043 151.74C255.623 151.74 257.303 153.81 257.303 156.24C257.303 158.67 255.623 160.71 253.043 160.71C250.463 160.71 248.783 158.67 248.783 156.24ZM263.147 164.01H267.197V155.46C267.197 152.76 268.727 151.59 270.437 151.59C272.447 151.59 273.797 152.76 273.797 155.46V164.01H277.847V155.46C277.847 152.46 279.137 151.59 281.027 151.59C282.857 151.59 284.147 152.76 284.147 155.46V164.01H288.197V154.47C288.197 150.54 285.617 148.05 282.257 148.05C279.527 148.05 278.027 149.1 276.977 150.99C275.957 149.1 274.097 148.05 271.907 148.05C269.507 148.05 267.947 148.95 267.137 150.69V148.41H263.147V164.01Z" fill="white"/>
<path fill-rule="evenodd" clip-rule="evenodd" d="M381.638 163.369C381.908 163.214 382.133 162.99 382.29 162.721C382.446 162.451 382.529 162.145 382.53 161.833L382.562 151.545C382.563 151.233 382.646 150.927 382.803 150.658C382.96 150.388 383.184 150.164 383.455 150.009L389.032 146.806C389.302 146.65 389.608 146.569 389.92 146.569C390.232 146.57 390.538 146.652 390.808 146.809C391.077 146.965 391.301 147.189 391.457 147.459C391.613 147.729 391.695 148.035 391.695 148.347V167.051C391.695 167.364 391.612 167.671 391.456 167.941C391.299 168.212 391.074 168.436 390.802 168.592L369.755 180.681C369.486 180.835 369.182 180.917 368.872 180.917C368.562 180.917 368.257 180.837 367.988 180.683L351.471 171.236C351.199 171.08 350.973 170.856 350.815 170.585C350.658 170.314 350.575 170.006 350.575 169.693V160.262C350.577 160.25 350.585 160.246 350.598 160.249C350.607 160.254 350.619 160.249 350.619 160.237V160.226C350.619 160.219 350.623 160.213 350.63 160.208L364.234 152.393C364.246 152.386 364.241 152.366 364.226 152.366C364.223 152.366 364.22 152.364 364.217 152.362C364.215 152.359 364.213 152.356 364.212 152.352L364.239 143.106C364.24 142.793 364.159 142.486 364.003 142.215C363.848 141.943 363.624 141.718 363.353 141.561C363.083 141.404 362.776 141.321 362.463 141.321C362.15 141.321 361.843 141.403 361.572 141.559L351.462 147.385C351.192 147.54 350.886 147.622 350.575 147.622C350.264 147.622 349.958 147.54 349.688 147.385L339.546 141.545C339.275 141.389 338.969 141.308 338.657 141.308C338.345 141.308 338.039 141.39 337.769 141.546C337.499 141.702 337.275 141.927 337.119 142.197C336.963 142.467 336.881 142.773 336.881 143.085V159.796C336.881 160.107 336.799 160.413 336.644 160.683C336.489 160.953 336.265 161.178 335.996 161.334C335.727 161.491 335.421 161.574 335.109 161.575C334.798 161.576 334.492 161.495 334.221 161.341L328.593 158.123C328.32 157.967 328.094 157.742 327.936 157.47C327.779 157.199 327.696 156.89 327.697 156.576L327.746 127.367C327.747 127.056 327.83 126.75 327.986 126.481C328.142 126.211 328.366 125.987 328.635 125.832C328.905 125.676 329.211 125.594 329.522 125.593C329.833 125.593 330.14 125.674 330.41 125.83L349.69 136.903C349.959 137.058 350.264 137.139 350.575 137.139C350.886 137.139 351.191 137.058 351.46 136.903L370.735 125.83C371.005 125.674 371.312 125.593 371.624 125.593C371.935 125.594 372.242 125.677 372.512 125.833C372.781 125.989 373.005 126.214 373.161 126.484C373.316 126.754 373.398 127.061 373.398 127.373V156.589C373.398 156.901 373.316 157.208 373.159 157.479C373.003 157.749 372.778 157.974 372.507 158.13L362.413 163.943C362.142 164.1 361.917 164.325 361.761 164.596C361.604 164.867 361.522 165.175 361.523 165.488C361.524 165.801 361.607 166.108 361.765 166.378C361.922 166.649 362.148 166.873 362.42 167.028L367.988 170.198C368.257 170.351 368.562 170.431 368.871 170.43C369.181 170.43 369.485 170.348 369.754 170.194L381.638 163.369ZM382.806 137.161C382.806 137.475 382.89 137.784 383.048 138.056C383.207 138.327 383.434 138.552 383.708 138.707C383.982 138.862 384.291 138.941 384.606 138.937C384.92 138.933 385.228 138.846 385.498 138.685L390.831 135.485C391.094 135.327 391.312 135.104 391.464 134.837C391.615 134.57 391.695 134.268 391.695 133.961V127.44C391.694 127.126 391.61 126.817 391.452 126.546C391.293 126.275 391.066 126.05 390.792 125.896C390.519 125.741 390.209 125.662 389.895 125.666C389.58 125.67 389.273 125.757 389.003 125.918L383.67 129.118C383.407 129.276 383.189 129.499 383.037 129.766C382.886 130.033 382.806 130.335 382.806 130.642V137.161Z" fill="white"/>
<path fill-rule="evenodd" clip-rule="evenodd" d="M457.862 146.589C457.862 148.003 458.424 149.36 459.424 150.36C460.425 151.36 461.781 151.922 463.195 151.922C464.61 151.922 465.966 151.36 466.966 150.36C467.967 149.36 468.528 148.003 468.528 146.589V133.255C468.528 131.841 467.967 130.484 466.966 129.484C465.966 128.484 464.61 127.922 463.195 127.922C461.781 127.922 460.425 128.484 459.424 129.484C458.424 130.484 457.862 131.841 457.862 133.255V146.589ZM436.528 141.255C435.114 141.255 433.757 141.817 432.757 142.817C431.757 143.817 431.195 145.174 431.195 146.589C431.195 148.003 431.757 149.36 432.757 150.36C433.757 151.36 435.114 151.922 436.528 151.922H449.863C451.278 151.922 452.635 151.36 453.635 150.36C454.635 149.36 455.197 148.003 455.197 146.589C455.197 145.174 454.635 143.817 453.635 142.817C452.635 141.817 451.278 141.255 449.863 141.255H436.528ZM463.195 154.589C461.781 154.589 460.425 155.151 459.424 156.151C458.424 157.151 457.862 158.508 457.862 159.922C457.862 161.336 458.424 162.693 459.424 163.693C460.425 164.693 461.781 165.255 463.195 165.255H476.528C477.943 165.255 479.299 164.693 480.299 163.693C481.3 162.693 481.861 161.336 481.861 159.922C481.861 158.508 481.3 157.151 480.299 156.151C479.299 155.151 477.943 154.589 476.528 154.589H463.195ZM449.862 178.589C449.162 178.589 448.468 178.451 447.821 178.183C447.174 177.915 446.586 177.522 446.09 177.027C445.595 176.532 445.202 175.944 444.934 175.296C444.666 174.649 444.528 173.956 444.528 173.255V159.922C444.528 158.507 445.09 157.151 446.091 156.151C447.091 155.15 448.447 154.589 449.862 154.589C451.276 154.589 452.633 155.15 453.633 156.151C454.633 157.151 455.195 158.507 455.195 159.922V173.255C455.196 173.955 455.058 174.649 454.79 175.296C454.522 175.943 454.129 176.531 453.634 177.027C453.139 177.522 452.551 177.915 451.903 178.183C451.256 178.451 450.563 178.589 449.862 178.589ZM444.528 133.255C444.528 131.84 445.09 130.484 446.091 129.484C447.091 128.483 448.447 127.922 449.862 127.922C451.276 127.922 452.633 128.483 453.633 129.484C454.633 130.484 455.195 131.84 455.195 133.255V138.589H449.862C449.162 138.589 448.468 138.451 447.821 138.183C447.174 137.915 446.586 137.522 446.09 137.027C445.595 136.532 445.202 135.944 444.934 135.296C444.666 134.649 444.528 133.956 444.528 133.255ZM431.195 159.922C431.195 161.337 431.757 162.693 432.758 163.693C433.758 164.694 435.114 165.256 436.529 165.256C437.943 165.256 439.3 164.694 440.3 163.693C441.3 162.693 441.862 161.337 441.862 159.922V154.589H436.528C435.114 154.589 433.758 155.151 432.757 156.151C431.757 157.151 431.195 158.508 431.195 159.922ZM468.528 173.255C468.528 174.669 467.967 176.026 466.966 177.026C465.966 178.026 464.61 178.588 463.195 178.588C461.781 178.588 460.425 178.026 459.424 177.026C458.424 176.026 457.862 174.669 457.862 173.255V167.922H463.195C464.61 167.922 465.966 168.484 466.966 169.484C467.967 170.484 468.528 171.841 468.528 173.255ZM481.863 146.589C481.863 145.174 481.301 143.818 480.301 142.818C479.301 141.817 477.944 141.256 476.53 141.256C475.115 141.256 473.759 141.817 472.759 142.818C471.758 143.818 471.196 145.174 471.196 146.589V151.922H476.529C477.23 151.922 477.923 151.784 478.571 151.516C479.218 151.248 479.806 150.856 480.301 150.36C480.796 149.865 481.189 149.277 481.457 148.63C481.725 147.983 481.863 147.289 481.863 146.589Z" fill="white"/>
<mask id="mask1_2_379" style="mask-type:luminance" maskUnits="userSpaceOnUse" x="521" y="121" width="65" height="65">
<path d="M521.363 121.255H585.363V185.255H521.363V121.255Z" fill="white"/>
</mask>
<g mask="url(#mask1_2_379)">
<mask id="mask2_2_379" style="mask-type:luminance" maskUnits="userSpaceOnUse" x="521" y="121" width="65" height="65">
<path d="M521.363 121.255H585.363V185.255H521.363V121.255Z" fill="white"/>
</mask>
<g mask="url(#mask2_2_379)">
<path d="M521.363 138.663C521.363 132.57 521.363 129.523 522.549 127.196C523.592 125.149 525.257 123.484 527.304 122.441C529.631 121.255 532.678 121.255 538.771 121.255H567.955C574.049 121.255 577.095 121.255 579.423 122.441C581.47 123.484 583.134 125.149 584.178 127.196C585.363 129.523 585.363 132.57 585.363 138.663V167.847C585.363 173.941 585.363 176.987 584.178 179.315C583.134 181.362 581.47 183.026 579.423 184.069C577.095 185.255 574.049 185.255 567.955 185.255H538.771C532.678 185.255 529.631 185.255 527.304 184.069C525.257 183.026 523.592 181.362 522.549 179.315C521.363 176.987 521.363 173.941 521.363 167.847V138.663Z" fill="white"/>
<path d="M530.964 167.14L543.992 133.783H548.334L535.261 167.14H530.964Z" fill="black"/>
<path d="M556.824 143.901C562.507 143.901 566.48 147.135 567.266 152.171H562.923C562.184 149.307 559.874 147.781 556.964 147.781C552.852 147.781 550.034 150.922 550.034 155.82C550.034 160.718 552.667 163.813 556.78 163.813C559.875 163.813 562.185 162.196 562.97 159.516H567.313C566.435 164.414 562.231 167.693 556.78 167.693C550.127 167.693 545.738 162.981 545.738 155.866C545.738 148.751 550.22 143.9 556.827 143.9L556.824 143.901Z" fill="black"/>
<path d="M569.622 164.46C569.622 162.657 571.146 161.179 572.948 161.179C574.75 161.179 576.229 162.657 576.229 164.46C576.229 166.262 574.705 167.693 572.948 167.693C571.192 167.693 569.622 166.215 569.622 164.46Z" fill="black"/>
</g>
</g>
<path d="M163.852 250.969V241.161H160.14V239.769H169.068V241.161H165.356V250.969H163.852ZM169.389 250.969V243.289H170.797V244.617C171.197 243.593 172.141 243.033 173.149 243.033C173.389 243.033 173.565 243.065 173.677 243.081V244.681C173.453 244.649 173.197 244.633 172.989 244.633C171.725 244.633 171.037 245.465 170.829 246.201V250.969H169.389ZM178.252 251.209C176.78 251.209 175.356 250.217 175.356 248.345V243.289H176.796V247.977C176.796 249.145 177.628 249.833 178.588 249.833C179.404 249.833 180.044 249.449 180.54 248.825V243.289H181.98V250.969H180.572V250.233C180.044 250.777 179.276 251.209 178.252 251.209ZM186.612 251.209C185.652 251.209 184.644 250.921 184.004 250.585V249.193C184.884 249.657 185.796 249.929 186.612 249.929C187.652 249.929 188.228 249.545 188.228 248.825C188.228 248.329 187.86 247.993 187.22 247.849L185.908 247.561C184.676 247.289 183.988 246.521 183.988 245.369C183.988 243.961 185.204 243.033 186.884 243.033C187.94 243.033 188.724 243.289 189.332 243.561V244.969C188.532 244.553 187.636 244.313 186.884 244.313C185.876 244.313 185.428 244.777 185.428 245.369C185.428 245.769 185.716 246.137 186.356 246.281L187.572 246.553C188.964 246.857 189.7 247.657 189.7 248.825C189.7 250.361 188.324 251.209 186.612 251.209ZM194.294 251.209C192.982 251.209 192.134 250.473 192.134 249.081V244.569H190.742V243.289H192.23V241.017L193.574 240.217V243.289H195.446V244.569H193.574V248.857C193.574 249.561 193.958 249.913 194.726 249.913C194.982 249.913 195.27 249.865 195.446 249.801V251.049C195.318 251.097 194.806 251.209 194.294 251.209ZM200.764 251.209C198.62 251.209 196.812 249.817 196.812 247.097C196.812 244.633 198.556 243.033 200.588 243.033C202.972 243.033 204.348 244.761 204.348 247.177C204.348 247.369 204.332 247.593 204.316 247.689H198.364C198.428 248.969 199.468 249.881 200.764 249.881C202.012 249.881 202.94 249.529 203.98 248.713V250.137C203.324 250.649 202.332 251.209 200.764 251.209ZM198.412 246.441H202.78C202.748 245.225 201.98 244.361 200.588 244.361C199.324 244.361 198.476 245.337 198.412 246.441ZM211.816 239.369H213.256V250.969H211.816V250.137C211.256 250.713 210.504 251.209 209.304 251.209C207.048 251.209 205.624 249.385 205.624 247.097C205.624 244.841 207.048 243.033 209.304 243.033C210.504 243.033 211.256 243.513 211.816 244.089V239.369ZM211.816 248.569V245.657C211.352 245.001 210.584 244.393 209.56 244.393C208.088 244.393 207.144 245.417 207.144 247.097C207.144 248.809 208.088 249.849 209.56 249.849C210.584 249.849 211.352 249.225 211.816 248.569ZM224.451 243.033C226.707 243.033 228.131 244.841 228.131 247.097C228.131 249.385 226.707 251.209 224.451 251.209C223.251 251.209 222.499 250.713 221.939 250.137V250.969H220.499V239.369H221.939V244.089C222.499 243.513 223.251 243.033 224.451 243.033ZM224.195 249.849C225.667 249.849 226.611 248.809 226.611 247.097C226.611 245.417 225.667 244.393 224.195 244.393C223.171 244.393 222.403 245.001 221.939 245.657V248.569C222.403 249.225 223.171 249.849 224.195 249.849ZM230.005 254.185L232.005 250.121L228.613 243.289H230.277L232.757 248.585L235.141 243.289H236.837L231.701 254.185H230.005ZM245.56 251.209C244.248 251.209 243.4 250.473 243.4 249.081V244.569H242.008V243.289H243.496V241.017L244.84 240.217V243.289H246.712V244.569H244.84V248.857C244.84 249.561 245.224 249.913 245.992 249.913C246.248 249.913 246.536 249.865 246.712 249.801V251.049C246.584 251.097 246.072 251.209 245.56 251.209ZM248.718 250.969V239.369H250.158V243.993C250.686 243.465 251.47 243.033 252.478 243.033C253.95 243.033 255.406 244.025 255.406 245.897V250.969H253.966V246.265C253.966 245.097 253.102 244.409 252.141 244.409C251.326 244.409 250.654 244.809 250.158 245.433V250.969H248.718ZM261.219 251.209C258.883 251.209 257.171 249.465 257.171 247.113C257.171 244.777 258.883 243.033 261.219 243.033C263.555 243.033 265.267 244.777 265.267 247.113C265.267 249.465 263.555 251.209 261.219 251.209ZM261.219 249.849C262.531 249.849 263.747 248.905 263.747 247.113C263.747 245.337 262.531 244.393 261.219 244.393C259.907 244.393 258.691 245.337 258.691 247.113C258.691 248.905 259.907 249.849 261.219 249.849ZM270.002 251.209C268.53 251.209 267.106 250.217 267.106 248.345V243.289H268.546V247.977C268.546 249.145 269.378 249.833 270.338 249.833C271.154 249.833 271.794 249.449 272.29 248.825V243.289H273.73V250.969H272.322V250.233C271.794 250.777 271.026 251.209 270.002 251.209ZM278.362 251.209C277.402 251.209 276.394 250.921 275.754 250.585V249.193C276.634 249.657 277.546 249.929 278.362 249.929C279.402 249.929 279.978 249.545 279.978 248.825C279.978 248.329 279.61 247.993 278.97 247.849L277.658 247.561C276.426 247.289 275.738 246.521 275.738 245.369C275.738 243.961 276.954 243.033 278.634 243.033C279.69 243.033 280.474 243.289 281.082 243.561V244.969C280.282 244.553 279.386 244.313 278.634 244.313C277.626 244.313 277.178 244.777 277.178 245.369C277.178 245.769 277.466 246.137 278.106 246.281L279.322 246.553C280.714 246.857 281.45 247.657 281.45 248.825C281.45 250.361 280.074 251.209 278.362 251.209ZM285.932 251.209C284.204 251.209 282.972 250.233 282.972 248.521C282.972 246.937 284.364 246.025 285.932 246.025C286.796 246.025 287.612 246.233 288.108 246.505V245.689C288.108 244.937 287.532 244.313 286.348 244.313C285.228 244.313 284.124 244.745 283.42 245.193V243.737C284.252 243.321 285.196 243.033 286.348 243.033C288.636 243.033 289.548 244.345 289.548 245.849V250.969H288.156V250.345C287.692 250.793 286.908 251.209 285.932 251.209ZM286.188 249.977C287.1 249.977 287.82 249.497 288.108 249.209V247.801C287.82 247.577 287.068 247.225 286.188 247.225C285.212 247.225 284.476 247.689 284.476 248.521C284.476 249.417 285.212 249.977 286.188 249.977ZM291.796 250.969V243.289H293.204V244.025C293.732 243.481 294.5 243.033 295.524 243.033C296.996 243.033 298.42 244.025 298.42 245.897V250.969H296.98V246.265C296.98 245.097 296.148 244.409 295.188 244.409C294.372 244.409 293.732 244.809 293.236 245.433V250.969H291.796ZM306.379 239.369H307.819V250.969H306.379V250.137C305.819 250.713 305.067 251.209 303.867 251.209C301.611 251.209 300.187 249.385 300.187 247.097C300.187 244.841 301.611 243.033 303.867 243.033C305.067 243.033 305.819 243.513 306.379 244.089V239.369ZM306.379 248.569V245.657C305.915 245.001 305.147 244.393 304.123 244.393C302.651 244.393 301.707 245.417 301.707 247.097C301.707 248.809 302.651 249.849 304.123 249.849C305.147 249.849 305.915 249.225 306.379 248.569ZM312.518 251.209C311.558 251.209 310.55 250.921 309.91 250.585V249.193C310.79 249.657 311.702 249.929 312.518 249.929C313.558 249.929 314.134 249.545 314.134 248.825C314.134 248.329 313.766 247.993 313.126 247.849L311.814 247.561C310.582 247.289 309.894 246.521 309.894 245.369C309.894 243.961 311.11 243.033 312.79 243.033C313.846 243.033 314.63 243.289 315.238 243.561V244.969C314.438 244.553 313.542 244.313 312.79 244.313C311.782 244.313 311.334 244.777 311.334 245.369C311.334 245.769 311.622 246.137 312.262 246.281L313.478 246.553C314.87 246.857 315.606 247.657 315.606 248.825C315.606 250.361 314.23 251.209 312.518 251.209ZM325.704 251.209C323.368 251.209 321.656 249.465 321.656 247.113C321.656 244.777 323.368 243.033 325.704 243.033C328.04 243.033 329.752 244.777 329.752 247.113C329.752 249.465 328.04 251.209 325.704 251.209ZM325.704 249.849C327.016 249.849 328.232 248.905 328.232 247.113C328.232 245.337 327.016 244.393 325.704 244.393C324.392 244.393 323.176 245.337 323.176 247.113C323.176 248.905 324.392 249.849 325.704 249.849ZM332.135 250.969V244.569H330.711V243.289H332.167V241.977C332.167 240.393 333.079 239.337 334.775 239.337C335.191 239.337 335.415 239.385 335.607 239.433V240.825C335.479 240.777 335.207 240.713 334.871 240.713C334.343 240.713 333.575 241.001 333.575 242.057V243.289H335.591V244.569H333.575V250.969H332.135ZM347.441 239.369H348.881V250.969H347.441V250.137C346.881 250.713 346.129 251.209 344.929 251.209C342.673 251.209 341.249 249.385 341.249 247.097C341.249 244.841 342.673 243.033 344.929 243.033C346.129 243.033 346.881 243.513 347.441 244.089V239.369ZM347.441 248.569V245.657C346.977 245.001 346.209 244.393 345.185 244.393C343.713 244.393 342.769 245.417 342.769 247.097C342.769 248.809 343.713 249.849 345.185 249.849C346.209 249.849 346.977 249.225 347.441 248.569ZM354.748 251.209C352.604 251.209 350.796 249.817 350.796 247.097C350.796 244.633 352.54 243.033 354.572 243.033C356.956 243.033 358.332 244.761 358.332 247.177C358.332 247.369 358.316 247.593 358.3 247.689H352.348C352.412 248.969 353.452 249.881 354.748 249.881C355.996 249.881 356.924 249.529 357.964 248.713V250.137C357.308 250.649 356.316 251.209 354.748 251.209ZM352.396 246.441H356.764C356.732 245.225 355.964 244.361 354.572 244.361C353.308 244.361 352.46 245.337 352.396 246.441ZM362.173 250.969L358.973 243.289H360.621L362.941 249.241L365.277 243.289H366.845L363.693 250.969H362.173ZM371.436 251.209C369.292 251.209 367.484 249.817 367.484 247.097C367.484 244.633 369.228 243.033 371.26 243.033C373.644 243.033 375.02 244.761 375.02 247.177C375.02 247.369 375.004 247.593 374.988 247.689H369.036C369.1 248.969 370.14 249.881 371.436 249.881C372.684 249.881 373.612 249.529 374.652 248.713V250.137C373.996 250.649 373.004 251.209 371.436 251.209ZM369.084 246.441H373.452C373.42 245.225 372.652 244.361 371.26 244.361C369.996 244.361 369.148 245.337 369.084 246.441ZM376.936 250.969V239.369H378.376V250.969H376.936ZM384.344 251.209C382.008 251.209 380.296 249.465 380.296 247.113C380.296 244.777 382.008 243.033 384.344 243.033C386.68 243.033 388.392 244.777 388.392 247.113C388.392 249.465 386.68 251.209 384.344 251.209ZM384.344 249.849C385.656 249.849 386.872 248.905 386.872 247.113C386.872 245.337 385.656 244.393 384.344 244.393C383.032 244.393 381.816 245.337 381.816 247.113C381.816 248.905 383.032 249.849 384.344 249.849ZM390.311 253.993V243.289H391.751V244.089C392.311 243.513 393.063 243.033 394.263 243.033C396.519 243.033 397.943 244.841 397.943 247.097C397.943 249.385 396.519 251.209 394.263 251.209C393.063 251.209 392.311 250.713 391.751 250.137V253.993H390.311ZM394.007 249.849C395.479 249.849 396.423 248.809 396.423 247.097C396.423 245.417 395.479 244.393 394.007 244.393C392.983 244.393 392.215 245.001 391.751 245.657V248.569C392.215 249.225 392.983 249.849 394.007 249.849ZM403.17 251.209C401.026 251.209 399.218 249.817 399.218 247.097C399.218 244.633 400.962 243.033 402.994 243.033C405.378 243.033 406.754 244.761 406.754 247.177C406.754 247.369 406.738 247.593 406.722 247.689H400.77C400.834 248.969 401.874 249.881 403.17 249.881C404.418 249.881 405.346 249.529 406.386 248.713V250.137C405.73 250.649 404.738 251.209 403.17 251.209ZM400.818 246.441H405.186C405.154 245.225 404.386 244.361 402.994 244.361C401.73 244.361 400.882 245.337 400.818 246.441ZM408.671 250.969V243.289H410.079V244.617C410.479 243.593 411.423 243.033 412.431 243.033C412.671 243.033 412.847 243.065 412.959 243.081V244.681C412.735 244.649 412.479 244.633 412.271 244.633C411.007 244.633 410.319 245.465 410.111 246.201V250.969H408.671ZM416.862 251.209C415.902 251.209 414.894 250.921 414.254 250.585V249.193C415.134 249.657 416.046 249.929 416.862 249.929C417.902 249.929 418.478 249.545 418.478 248.825C418.478 248.329 418.11 247.993 417.47 247.849L416.158 247.561C414.926 247.289 414.238 246.521 414.238 245.369C414.238 243.961 415.454 243.033 417.134 243.033C418.19 243.033 418.974 243.289 419.582 243.561V244.969C418.782 244.553 417.886 244.313 417.134 244.313C416.126 244.313 415.678 244.777 415.678 245.369C415.678 245.769 415.966 246.137 416.606 246.281L417.822 246.553C419.214 246.857 419.95 247.657 419.95 248.825C419.95 250.361 418.574 251.209 416.862 251.209ZM429.119 251.209C427.391 251.209 426.159 250.233 426.159 248.521C426.159 246.937 427.551 246.025 429.119 246.025C429.983 246.025 430.799 246.233 431.295 246.505V245.689C431.295 244.937 430.719 244.313 429.535 244.313C428.415 244.313 427.311 244.745 426.607 245.193V243.737C427.439 243.321 428.383 243.033 429.535 243.033C431.823 243.033 432.735 244.345 432.735 245.849V250.969H431.343V250.345C430.879 250.793 430.095 251.209 429.119 251.209ZM429.375 249.977C430.287 249.977 431.007 249.497 431.295 249.209V247.801C431.007 247.577 430.255 247.225 429.375 247.225C428.399 247.225 427.663 247.689 427.663 248.521C427.663 249.417 428.399 249.977 429.375 249.977ZM434.983 250.969V243.289H436.391V244.025C436.919 243.481 437.687 243.033 438.711 243.033C440.183 243.033 441.607 244.025 441.607 245.897V250.969H440.167V246.265C440.167 245.097 439.335 244.409 438.375 244.409C437.559 244.409 436.919 244.809 436.423 245.433V250.969H434.983ZM449.566 239.369H451.006V250.969H449.566V250.137C449.006 250.713 448.254 251.209 447.054 251.209C444.798 251.209 443.374 249.385 443.374 247.097C443.374 244.841 444.798 243.033 447.054 243.033C448.254 243.033 449.006 243.513 449.566 244.089V239.369ZM449.566 248.569V245.657C449.102 245.001 448.334 244.393 447.31 244.393C445.838 244.393 444.894 245.417 444.894 247.097C444.894 248.809 445.838 249.849 447.31 249.849C448.334 249.849 449.102 249.225 449.566 248.569ZM461.721 244.441C460.473 244.441 459.145 245.321 459.145 247.113C459.145 248.905 460.473 249.801 461.721 249.801C462.617 249.801 463.337 249.593 464.121 249.065V250.665C463.545 250.937 462.761 251.209 461.721 251.209C459.353 251.209 457.609 249.513 457.609 247.113C457.609 244.713 459.353 243.033 461.721 243.033C462.761 243.033 463.545 243.305 464.121 243.577V245.177C463.337 244.649 462.617 244.441 461.721 244.441ZM469.61 251.209C467.274 251.209 465.562 249.465 465.562 247.113C465.562 244.777 467.274 243.033 469.61 243.033C471.946 243.033 473.658 244.777 473.658 247.113C473.658 249.465 471.946 251.209 469.61 251.209ZM469.61 249.849C470.922 249.849 472.138 248.905 472.138 247.113C472.138 245.337 470.922 244.393 469.61 244.393C468.298 244.393 467.082 245.337 467.082 247.113C467.082 248.905 468.298 249.849 469.61 249.849ZM484.121 243.033C485.593 243.033 486.969 244.025 486.969 245.897V250.969H485.529V246.265C485.529 245.097 484.857 244.409 483.897 244.409C483.097 244.409 482.457 244.777 481.961 245.401C481.977 245.561 481.993 245.721 481.993 245.897V250.969H480.569V246.265C480.569 245.097 479.929 244.409 478.969 244.409C478.153 244.409 477.513 244.809 477.017 245.433V250.969H475.577V243.289H476.985V244.025C477.513 243.481 478.281 243.033 479.305 243.033C480.185 243.033 480.985 243.385 481.465 244.089C481.897 243.673 482.745 243.033 484.121 243.033ZM489.374 253.993V243.289H490.814V244.089C491.374 243.513 492.126 243.033 493.326 243.033C495.582 243.033 497.006 244.841 497.006 247.097C497.006 249.385 495.582 251.209 493.326 251.209C492.126 251.209 491.374 250.713 490.814 250.137V253.993H489.374ZM493.07 249.849C494.542 249.849 495.486 248.809 495.486 247.097C495.486 245.417 494.542 244.393 493.07 244.393C492.046 244.393 491.278 245.001 490.814 245.657V248.569C491.278 249.225 492.046 249.849 493.07 249.849ZM501.401 251.209C499.673 251.209 498.441 250.233 498.441 248.521C498.441 246.937 499.833 246.025 501.401 246.025C502.265 246.025 503.081 246.233 503.577 246.505V245.689C503.577 244.937 503.001 244.313 501.817 244.313C500.697 244.313 499.593 244.745 498.889 245.193V243.737C499.721 243.321 500.665 243.033 501.817 243.033C504.105 243.033 505.017 244.345 505.017 245.849V250.969H503.625V250.345C503.161 250.793 502.377 251.209 501.401 251.209ZM501.657 249.977C502.569 249.977 503.289 249.497 503.577 249.209V247.801C503.289 247.577 502.537 247.225 501.657 247.225C500.681 247.225 499.945 247.689 499.945 248.521C499.945 249.417 500.681 249.977 501.657 249.977ZM507.264 250.969V243.289H508.672V244.025C509.2 243.481 509.968 243.033 510.992 243.033C512.464 243.033 513.888 244.025 513.888 245.897V250.969H512.448V246.265C512.448 245.097 511.616 244.409 510.656 244.409C509.84 244.409 509.2 244.809 508.704 245.433V250.969H507.264ZM517.016 241.417C516.424 241.417 515.976 240.953 515.976 240.361C515.976 239.753 516.424 239.289 517.016 239.289C517.624 239.289 518.072 239.753 518.072 240.361C518.072 240.953 517.624 241.417 517.016 241.417ZM516.312 250.969V243.289H517.752V250.969H516.312ZM523.623 251.209C521.479 251.209 519.671 249.817 519.671 247.097C519.671 244.633 521.415 243.033 523.447 243.033C525.831 243.033 527.207 244.761 527.207 247.177C527.207 247.369 527.191 247.593 527.175 247.689H521.223C521.287 248.969 522.327 249.881 523.623 249.881C524.871 249.881 525.799 249.529 526.839 248.713V250.137C526.183 250.649 525.191 251.209 523.623 251.209ZM521.271 246.441H525.639C525.607 245.225 524.839 244.361 523.447 244.361C522.183 244.361 521.335 245.337 521.271 246.441ZM531.268 251.209C530.308 251.209 529.3 250.921 528.66 250.585V249.193C529.54 249.657 530.452 249.929 531.268 249.929C532.308 249.929 532.884 249.545 532.884 248.825C532.884 248.329 532.516 247.993 531.876 247.849L530.564 247.561C529.332 247.289 528.644 246.521 528.644 245.369C528.644 243.961 529.86 243.033 531.54 243.033C532.596 243.033 533.38 243.289 533.988 243.561V244.969C533.188 244.553 532.292 244.313 531.54 244.313C530.532 244.313 530.084 244.777 530.084 245.369C530.084 245.769 530.372 246.137 531.012 246.281L532.228 246.553C533.62 246.857 534.356 247.657 534.356 248.825C534.356 250.361 532.98 251.209 531.268 251.209ZM537.302 251.049C536.678 251.049 536.198 250.569 536.198 249.945C536.198 249.321 536.678 248.825 537.302 248.825C537.926 248.825 538.422 249.321 538.422 249.945C538.422 250.569 537.926 251.049 537.302 251.049Z" fill="white"/>
<defs>
<filter id="filter0_f_2_379" x="260" y="-460" width="800" height="800" filterUnits="userSpaceOnUse" color-interpolation-filters="sRGB">
<feFlood flood-opacity="0" result="BackgroundImageFix"/>
<feBlend mode="normal" in="SourceGraphic" in2="BackgroundImageFix" result="shape"/>
<feGaussianBlur stdDeviation="120" result="effect1_foregroundBlur_2_379"/>
</filter>
<filter id="filter1_f_2_379" x="-380" y="-187" width="800" height="800" filterUnits="userSpaceOnUse" color-interpolation-filters="sRGB">
<feFlood flood-opacity="0" result="BackgroundImageFix"/>
<feBlend mode="normal" in="SourceGraphic" in2="BackgroundImageFix" result="shape"/>
<feGaussianBlur stdDeviation="120" result="effect1_foregroundBlur_2_379"/>
</filter>
<filter id="filter2_f_2_379" x="260" y="80" width="800" height="800" filterUnits="userSpaceOnUse" color-interpolation-filters="sRGB">
<feFlood flood-opacity="0" result="BackgroundImageFix"/>
<feBlend mode="normal" in="SourceGraphic" in2="BackgroundImageFix" result="shape"/>
<feGaussianBlur stdDeviation="120" result="effect1_foregroundBlur_2_379"/>
</filter>
<filter id="filter3_f_2_379" x="-380" y="13" width="800" height="800" filterUnits="userSpaceOnUse" color-interpolation-filters="sRGB">
<feFlood flood-opacity="0" result="BackgroundImageFix"/>
<feBlend mode="normal" in="SourceGraphic" in2="BackgroundImageFix" result="shape"/>
<feGaussianBlur stdDeviation="120" result="effect1_foregroundBlur_2_379"/>
</filter>
<linearGradient id="paint0_linear_2_379" x1="1.27814e-05" y1="320" x2="710.784" y2="26.0793" gradientUnits="userSpaceOnUse">
<stop stop-color="#18E299" stop-opacity="0.09"/>
<stop offset="0.729167" stop-color="#0D9373" stop-opacity="0.08"/>
</linearGradient>
<radialGradient id="paint1_radial_2_379" cx="0" cy="0" r="1" gradientUnits="userSpaceOnUse" gradientTransform="translate(nan nan) rotate(nan) scale(nan nan)">
<stop offset="0.348958" stop-color="#84FFD3"/>
<stop offset="0.880208" stop-color="#18E299" stop-opacity="0"/>
</radialGradient>
<radialGradient id="paint2_radial_2_379" cx="0" cy="0" r="1" gradientUnits="userSpaceOnUse" gradientTransform="translate(nan nan) rotate(nan) scale(nan nan)">
<stop offset="0.348958" stop-color="#84FFD3"/>
<stop offset="0.880208" stop-color="#18E299" stop-opacity="0"/>
</radialGradient>
<radialGradient id="paint3_radial_2_379" cx="0" cy="0" r="1" gradientUnits="userSpaceOnUse" gradientTransform="translate(nan nan) rotate(nan) scale(nan nan)">
<stop offset="0.348958" stop-color="#84FFD3"/>
<stop offset="0.880208" stop-color="#18E299" stop-opacity="0"/>
</radialGradient>
<radialGradient id="paint4_radial_2_379" cx="0" cy="0" r="1" gradientUnits="userSpaceOnUse" gradientTransform="translate(nan nan) rotate(nan) scale(nan nan)">
<stop offset="0.348958" stop-color="#84FFD3"/>
<stop offset="0.880208" stop-color="#18E299" stop-opacity="0"/>
</radialGradient>
<radialGradient id="paint5_radial_2_379" cx="0" cy="0" r="1" gradientUnits="userSpaceOnUse" gradientTransform="translate(nan nan) rotate(nan) scale(nan nan)">
<stop offset="0.348958" stop-color="#84FFD3"/>
<stop offset="0.880208" stop-color="#18E299" stop-opacity="0"/>
</radialGradient>
<radialGradient id="paint6_radial_2_379" cx="0" cy="0" r="1" gradientUnits="userSpaceOnUse" gradientTransform="translate(nan nan) rotate(nan) scale(nan nan)">
<stop offset="0.348958" stop-color="#84FFD3"/>
<stop offset="0.880208" stop-color="#18E299" stop-opacity="0"/>
</radialGradient>
<radialGradient id="paint7_radial_2_379" cx="0" cy="0" r="1" gradientUnits="userSpaceOnUse" gradientTransform="translate(nan nan) rotate(nan) scale(nan nan)">
<stop offset="0.348958" stop-color="#84FFD3"/>
<stop offset="0.880208" stop-color="#18E299" stop-opacity="0"/>
</radialGradient>
<radialGradient id="paint8_radial_2_379" cx="0" cy="0" r="1" gradientUnits="userSpaceOnUse" gradientTransform="translate(nan nan) rotate(nan) scale(nan nan)">
<stop offset="0.348958" stop-color="#84FFD3"/>
<stop offset="0.880208" stop-color="#18E299" stop-opacity="0"/>
</radialGradient>
<linearGradient id="paint9_linear_2_379" x1="nan" y1="nan" x2="nan" y2="nan" gradientUnits="userSpaceOnUse">
<stop stop-color="white" stop-opacity="0.1"/>
<stop offset="0.5" stop-color="white"/>
<stop offset="1" stop-color="white" stop-opacity="0.1"/>
</linearGradient>
<linearGradient id="paint10_linear_2_379" x1="511" y1="-1" x2="189" y2="321" gradientUnits="userSpaceOnUse">
<stop stop-color="white" stop-opacity="0.1"/>
<stop offset="0.5" stop-color="white"/>
<stop offset="1" stop-color="white" stop-opacity="0.1"/>
</linearGradient>
<linearGradient id="paint11_linear_2_379" x1="511" y1="321" x2="189" y2="-1" gradientUnits="userSpaceOnUse">
<stop stop-color="white" stop-opacity="0.1"/>
<stop offset="0.5" stop-color="white"/>
<stop offset="1" stop-color="white" stop-opacity="0.1"/>
</linearGradient>
</defs>
</svg>
