<svg width="701" height="321" viewBox="0 0 701 321" fill="none" xmlns="http://www.w3.org/2000/svg">
<mask id="mask0_2_378" style="mask-type:luminance" maskUnits="userSpaceOnUse" x="0" y="0" width="701" height="321">
<path d="M684.645 0.74472H16.6445C7.80797 0.74472 0.644531 7.90816 0.644531 16.7447V304.745C0.644531 313.581 7.80797 320.745 16.6445 320.745H684.645C693.481 320.745 700.645 313.581 700.645 304.745V16.7447C700.645 7.90816 693.481 0.74472 684.645 0.74472Z" fill="white"/>
</mask>
<g mask="url(#mask0_2_378)">
<path d="M684.645 0.74472H16.6445C7.80797 0.74472 0.644531 7.90816 0.644531 16.7447V304.745C0.644531 313.581 7.80797 320.745 16.6445 320.745H684.645C693.481 320.745 700.645 313.581 700.645 304.745V16.7447C700.645 7.90816 693.481 0.74472 684.645 0.74472Z" fill="url(#paint0_linear_2_378)"/>
<g opacity="0.8" filter="url(#filter0_f_2_378)">
<path d="M660.645 100.745C749.01 100.745 820.645 29.1103 820.645 -59.2553C820.645 -147.621 749.01 -219.255 660.645 -219.255C572.279 -219.255 500.645 -147.621 500.645 -59.2553C500.645 29.1103 572.279 100.745 660.645 100.745Z" fill="#18E244" fill-opacity="0.4"/>
</g>
<g opacity="0.8" filter="url(#filter1_f_2_378)">
<path d="M20.6445 373.745C109.01 373.745 180.645 302.11 180.645 213.745C180.645 125.379 109.01 53.7447 20.6445 53.7447C-67.721 53.7447 -139.355 125.379 -139.355 213.745C-139.355 302.11 -67.721 373.745 20.6445 373.745Z" fill="#18CAE2" fill-opacity="0.33"/>
</g>
<g opacity="0.8" filter="url(#filter2_f_2_378)">
</g>
<g opacity="0.8" filter="url(#filter3_f_2_378)">
<path d="M20.6445 573.745C109.01 573.745 180.645 502.11 180.645 413.745C180.645 325.379 109.01 253.745 20.6445 253.745C-67.721 253.745 -139.355 325.379 -139.355 413.745C-139.355 502.11 -67.721 573.745 20.6445 573.745Z" fill="#4018E2" fill-opacity="0.22"/>
</g>
<path opacity="0.2" d="M0.644531 50.7447H700.645" stroke="url(#paint1_radial_2_378)" stroke-dasharray="4 4"/>
<path opacity="0.1" d="M0.644531 82.7447H700.645" stroke="url(#paint2_radial_2_378)" stroke-dasharray="4 4"/>
<path opacity="0.2" d="M239.645 0.74472V320.745" stroke="url(#paint3_radial_2_378)" stroke-dasharray="4 4"/>
<path opacity="0.1" d="M271.645 0.74472V320.745" stroke="url(#paint4_radial_2_378)" stroke-dasharray="4 4"/>
<path opacity="0.2" d="M461.645 0.74472V320.745" stroke="url(#paint5_radial_2_378)" stroke-dasharray="4 4"/>
<path opacity="0.1" d="M429.645 0.74472V320.745" stroke="url(#paint6_radial_2_378)" stroke-dasharray="4 4"/>
<path opacity="0.2" d="M0.644531 271.745H700.645" stroke="url(#paint7_radial_2_378)" stroke-dasharray="4 4"/>
<path opacity="0.1" d="M0.644531 239.745H700.645" stroke="url(#paint8_radial_2_378)" stroke-dasharray="4 4"/>
<g style="mix-blend-mode:overlay" opacity="0.1">
<path d="M0.644531 160.745H700.645" stroke="url(#paint9_linear_2_378)"/>
</g>
<g style="mix-blend-mode:overlay" opacity="0.2">
<path d="M511.645 -0.25528L189.645 321.745" stroke="url(#paint10_linear_2_378)"/>
</g>
<g style="mix-blend-mode:overlay" opacity="0.2">
<path d="M511.645 321.745L189.645 -0.25528" stroke="url(#paint11_linear_2_378)"/>
</g>
<g style="mix-blend-mode:overlay" opacity="0.1">
<path d="M350.645 271.745C411.948 271.745 461.645 222.048 461.645 160.745C461.645 99.4411 411.948 49.7447 350.645 49.7447C289.341 49.7447 239.645 99.4411 239.645 160.745C239.645 222.048 289.341 271.745 350.645 271.745Z" stroke="white"/>
</g>
<g style="mix-blend-mode:overlay" opacity="0.1">
<path d="M350.645 239.745C394.275 239.745 429.645 204.375 429.645 160.745C429.645 117.114 394.275 81.7447 350.645 81.7447C307.014 81.7447 271.645 117.114 271.645 160.745C271.645 204.375 307.014 239.745 350.645 239.745Z" stroke="white"/>
</g>
</g>
<path fill-rule="evenodd" clip-rule="evenodd" d="M130.637 126L162.637 182H98.6367L130.637 126Z" fill="black"/>
<path d="M213.087 165.145C216.747 165.145 219.447 163.735 221.037 161.815L217.977 159.205C216.747 160.555 215.217 161.245 213.177 161.245C209.037 161.245 206.487 158.125 206.487 154.285C206.487 150.445 209.037 147.265 213.087 147.265C214.977 147.265 216.537 147.925 217.797 149.245L220.767 146.665C218.877 144.415 216.507 143.365 213.087 143.365C206.607 143.365 202.137 148.255 202.137 154.285C202.137 160.285 206.847 165.145 213.087 165.145ZM228.681 165.145C231.471 165.145 232.881 163.975 233.721 162.205V164.755H237.651V149.155H233.631V151.615C232.791 149.935 231.381 148.825 228.681 148.825C224.391 148.825 220.971 152.515 220.971 157.015C220.971 161.515 224.391 165.145 228.681 165.145ZM225.021 156.985C225.021 154.555 226.761 152.485 229.341 152.485C232.011 152.485 233.721 154.585 233.721 157.015C233.721 159.445 232.011 161.485 229.341 161.485C226.761 161.485 225.021 159.355 225.021 156.985ZM240.058 164.755H244.108V142.855H240.058V164.755ZM248.663 165.145C250.223 165.145 251.333 163.945 251.333 162.505C251.333 161.095 250.223 159.895 248.663 159.895C247.103 159.895 245.963 161.095 245.963 162.505C245.963 163.945 247.103 165.145 248.663 165.145ZM260.037 165.145C263.097 165.145 265.257 164.035 266.727 162.145L263.787 159.595C262.977 160.675 261.957 161.455 260.397 161.455C257.817 161.455 256.047 159.385 256.047 156.955C256.047 154.525 257.727 152.455 260.307 152.455C261.687 152.455 262.887 153.145 263.607 154.225L266.727 151.675C265.407 149.845 263.097 148.735 260.247 148.765C255.477 148.795 251.997 152.425 251.997 156.955C251.997 161.485 255.567 165.145 260.037 165.145ZM275.043 165.145C279.873 165.145 283.353 161.485 283.353 156.985C283.353 152.485 279.873 148.795 275.043 148.795C270.213 148.795 266.733 152.485 266.733 156.985C266.733 161.485 270.213 165.145 275.043 165.145ZM270.783 156.985C270.783 154.555 272.463 152.485 275.043 152.485C277.623 152.485 279.303 154.555 279.303 156.985C279.303 159.415 277.623 161.455 275.043 161.455C272.463 161.455 270.783 159.415 270.783 156.985ZM285.147 164.755H289.197V156.205C289.197 153.505 290.727 152.335 292.437 152.335C294.447 152.335 295.797 153.505 295.797 156.205V164.755H299.847V156.205C299.847 153.205 301.137 152.335 303.027 152.335C304.857 152.335 306.147 153.505 306.147 156.205V164.755H310.197V155.215C310.197 151.285 307.617 148.795 304.257 148.795C301.527 148.795 300.027 149.845 298.977 151.735C297.957 149.845 296.097 148.795 293.907 148.795C291.507 148.795 289.947 149.695 289.137 151.435V149.155H285.147V164.755Z" fill="#141414"/>
<path fill-rule="evenodd" clip-rule="evenodd" d="M403.638 164.114C403.908 163.959 404.133 163.735 404.29 163.465C404.446 163.196 404.529 162.89 404.53 162.578L404.562 152.29C404.563 151.978 404.646 151.672 404.803 151.402C404.96 151.133 405.184 150.909 405.455 150.754L411.032 147.55C411.302 147.395 411.608 147.314 411.92 147.314C412.232 147.315 412.538 147.397 412.808 147.553C413.077 147.709 413.301 147.934 413.457 148.204C413.613 148.474 413.695 148.78 413.695 149.092V167.796C413.695 168.108 413.612 168.415 413.456 168.686C413.299 168.957 413.074 169.181 412.802 169.337L391.755 181.426C391.486 181.58 391.182 181.662 390.872 181.662C390.562 181.662 390.257 181.581 389.988 181.428L373.471 171.981C373.199 171.825 372.973 171.601 372.815 171.33C372.658 171.059 372.575 170.751 372.575 170.437V161.006C372.577 160.994 372.585 160.99 372.598 160.994C372.607 160.999 372.619 160.994 372.619 160.981V160.971C372.619 160.964 372.623 160.958 372.63 160.953L386.234 153.138C386.246 153.131 386.241 153.111 386.226 153.111C386.223 153.111 386.22 153.109 386.217 153.106C386.215 153.104 386.213 153.1 386.212 153.097L386.239 143.851C386.24 143.538 386.159 143.231 386.003 142.959C385.848 142.688 385.624 142.463 385.353 142.306C385.083 142.149 384.776 142.066 384.463 142.066C384.15 142.066 383.843 142.148 383.572 142.304L373.462 148.13C373.192 148.285 372.886 148.367 372.575 148.367C372.264 148.367 371.958 148.285 371.688 148.13L361.546 142.29C361.275 142.134 360.969 142.052 360.657 142.053C360.345 142.053 360.039 142.135 359.769 142.291C359.499 142.447 359.275 142.671 359.119 142.941C358.963 143.211 358.881 143.518 358.881 143.829V160.541C358.881 160.852 358.799 161.158 358.644 161.428C358.489 161.698 358.265 161.923 357.996 162.079C357.727 162.235 357.421 162.318 357.109 162.319C356.798 162.321 356.492 162.24 356.221 162.085L350.593 158.868C350.32 158.712 350.094 158.487 349.936 158.215C349.779 157.943 349.696 157.635 349.697 157.321L349.746 128.112C349.747 127.801 349.83 127.495 349.986 127.225C350.142 126.956 350.366 126.732 350.635 126.576C350.905 126.421 351.211 126.339 351.522 126.338C351.833 126.338 352.14 126.419 352.41 126.574L371.69 137.648C371.959 137.803 372.264 137.884 372.575 137.884C372.886 137.884 373.191 137.803 373.46 137.648L392.735 126.574C393.005 126.419 393.312 126.338 393.624 126.338C393.935 126.339 394.242 126.421 394.512 126.578C394.781 126.734 395.005 126.959 395.161 127.229C395.316 127.499 395.398 127.806 395.398 128.117V157.333C395.398 157.646 395.316 157.953 395.159 158.224C395.003 158.494 394.778 158.719 394.507 158.875L384.413 164.688C384.142 164.844 383.917 165.069 383.761 165.341C383.604 165.612 383.522 165.919 383.523 166.232C383.524 166.545 383.607 166.853 383.765 167.123C383.922 167.393 384.148 167.617 384.42 167.773L389.988 170.942C390.257 171.095 390.562 171.176 390.871 171.175C391.181 171.174 391.485 171.093 391.754 170.939L403.638 164.114ZM404.806 137.906C404.806 138.22 404.89 138.529 405.048 138.8C405.207 139.072 405.434 139.297 405.708 139.452C405.982 139.606 406.291 139.686 406.606 139.682C406.92 139.678 407.228 139.591 407.498 139.429L412.831 136.229C413.094 136.072 413.312 135.848 413.464 135.581C413.615 135.314 413.695 135.013 413.695 134.706V128.185C413.694 127.871 413.61 127.562 413.452 127.291C413.293 127.02 413.066 126.795 412.792 126.641C412.519 126.486 412.209 126.407 411.895 126.41C411.58 126.414 411.273 126.502 411.003 126.663L405.67 129.863C405.407 130.021 405.189 130.244 405.037 130.511C404.886 130.778 404.806 131.08 404.806 131.387V137.906Z" fill="#131212"/>
<path fill-rule="evenodd" clip-rule="evenodd" d="M479.862 147.334C479.862 148.748 480.424 150.105 481.424 151.105C482.425 152.105 483.781 152.667 485.195 152.667C486.61 152.667 487.966 152.105 488.966 151.105C489.967 150.105 490.528 148.748 490.528 147.334V134C490.528 132.585 489.967 131.229 488.966 130.229C487.966 129.229 486.61 128.667 485.195 128.667C483.781 128.667 482.425 129.229 481.424 130.229C480.424 131.229 479.862 132.585 479.862 134V147.334ZM458.528 142C457.114 142 455.757 142.562 454.757 143.562C453.757 144.562 453.195 145.919 453.195 147.333C453.195 148.748 453.757 150.104 454.757 151.105C455.757 152.105 457.114 152.667 458.528 152.667H471.863C473.278 152.667 474.635 152.105 475.635 151.105C476.635 150.104 477.197 148.748 477.197 147.333C477.197 145.919 476.635 144.562 475.635 143.562C474.635 142.562 473.278 142 471.863 142H458.528ZM485.195 155.334C483.781 155.334 482.425 155.896 481.424 156.896C480.424 157.896 479.862 159.252 479.862 160.667C479.862 162.081 480.424 163.438 481.424 164.438C482.425 165.438 483.781 166 485.195 166H498.528C499.943 166 501.299 165.438 502.299 164.438C503.3 163.438 503.861 162.081 503.861 160.667C503.861 159.252 503.3 157.896 502.299 156.896C501.299 155.896 499.943 155.334 498.528 155.334H485.195ZM471.862 179.334C471.162 179.334 470.468 179.196 469.821 178.928C469.174 178.66 468.586 178.267 468.09 177.772C467.595 177.276 467.202 176.688 466.934 176.041C466.666 175.394 466.528 174.7 466.528 174V160.667C466.528 159.252 467.09 157.896 468.091 156.895C469.091 155.895 470.447 155.333 471.862 155.333C473.276 155.333 474.633 155.895 475.633 156.895C476.633 157.896 477.195 159.252 477.195 160.667V174C477.196 174.7 477.058 175.394 476.79 176.041C476.522 176.688 476.129 177.276 475.634 177.771C475.139 178.267 474.551 178.66 473.903 178.928C473.256 179.196 472.563 179.334 471.862 179.334ZM466.528 134C466.528 132.585 467.09 131.229 468.091 130.228C469.091 129.228 470.447 128.666 471.862 128.666C473.276 128.666 474.633 129.228 475.633 130.228C476.633 131.229 477.195 132.585 477.195 134V139.334H471.862C471.162 139.334 470.468 139.196 469.821 138.928C469.174 138.66 468.586 138.267 468.09 137.772C467.595 137.276 467.202 136.688 466.934 136.041C466.666 135.394 466.528 134.7 466.528 134ZM453.195 160.667C453.195 162.081 453.757 163.438 454.758 164.438C455.758 165.438 457.114 166 458.529 166C459.943 166 461.3 165.438 462.3 164.438C463.3 163.438 463.862 162.081 463.862 160.667V155.334H458.528C457.114 155.334 455.758 155.896 454.757 156.896C453.757 157.896 453.195 159.252 453.195 160.667ZM490.528 174C490.528 175.414 489.967 176.771 488.966 177.771C487.966 178.771 486.61 179.333 485.195 179.333C483.781 179.333 482.425 178.771 481.424 177.771C480.424 176.771 479.862 175.414 479.862 174V168.667H485.195C486.61 168.667 487.966 169.229 488.966 170.229C489.967 171.229 490.528 172.585 490.528 174ZM503.863 147.334C503.863 145.919 503.301 144.563 502.301 143.562C501.301 142.562 499.944 142 498.53 142C497.115 142 495.759 142.562 494.759 143.562C493.758 144.563 493.196 145.919 493.196 147.334V152.667H498.529C499.23 152.667 499.923 152.529 500.571 152.261C501.218 151.993 501.806 151.6 502.301 151.105C502.796 150.61 503.189 150.022 503.457 149.375C503.725 148.728 503.863 148.034 503.863 147.334Z" fill="black"/>
<mask id="mask1_2_378" style="mask-type:luminance" maskUnits="userSpaceOnUse" x="543" y="122" width="65" height="64">
<path d="M543.363 122H607.363V186H543.363V122Z" fill="white"/>
</mask>
<g mask="url(#mask1_2_378)">
<mask id="mask2_2_378" style="mask-type:luminance" maskUnits="userSpaceOnUse" x="543" y="122" width="65" height="64">
<path d="M543.363 122H607.363V186H543.363V122Z" fill="white"/>
</mask>
<g mask="url(#mask2_2_378)">
<path d="M543.363 139.408C543.363 133.315 543.363 130.268 544.549 127.941C545.592 125.893 547.257 124.229 549.304 123.186C551.631 122 554.678 122 560.771 122H589.955C596.049 122 599.095 122 601.423 123.186C603.47 124.229 605.134 125.893 606.178 127.941C607.363 130.268 607.363 133.315 607.363 139.408V168.592C607.363 174.685 607.363 177.732 606.178 180.059C605.134 182.107 603.47 183.771 601.423 184.814C599.095 186 596.049 186 589.955 186H560.771C554.678 186 551.631 186 549.304 184.814C547.257 183.771 545.592 182.107 544.549 180.059C543.363 177.732 543.363 174.685 543.363 168.592V139.408Z" fill="#0B151E"/>
<path d="M552.964 167.884L565.992 134.528H570.334L557.261 167.884H552.964Z" fill="white"/>
<path d="M578.824 144.646C584.507 144.646 588.48 147.88 589.266 152.916H584.923C584.184 150.052 581.874 148.526 578.964 148.526C574.852 148.526 572.034 151.667 572.034 156.565C572.034 161.463 574.667 164.558 578.78 164.558C581.875 164.558 584.185 162.941 584.97 160.261H589.313C588.435 165.159 584.231 168.438 578.78 168.438C572.127 168.438 567.738 163.726 567.738 156.611C567.738 149.495 572.22 144.645 578.827 144.645L578.824 144.646Z" fill="white"/>
<path d="M591.622 165.204C591.622 163.402 593.146 161.924 594.948 161.924C596.75 161.924 598.229 163.402 598.229 165.204C598.229 167.007 596.705 168.438 594.948 168.438C593.192 168.438 591.622 166.96 591.622 165.204Z" fill="white"/>
</g>
</g>
<path d="M166.997 252.323V242.515H163.285V241.123H172.213V242.515H168.501V252.323H166.997ZM172.534 252.323V244.643H173.942V245.971C174.342 244.947 175.286 244.387 176.294 244.387C176.534 244.387 176.71 244.419 176.822 244.435V246.035C176.598 246.003 176.342 245.987 176.134 245.987C174.87 245.987 174.182 246.819 173.974 247.555V252.323H172.534ZM181.397 252.563C179.925 252.563 178.501 251.571 178.501 249.699V244.643H179.941V249.331C179.941 250.499 180.773 251.187 181.733 251.187C182.549 251.187 183.189 250.803 183.685 250.179V244.643H185.125V252.323H183.717V251.587C183.189 252.131 182.421 252.563 181.397 252.563ZM189.756 252.563C188.796 252.563 187.788 252.275 187.148 251.939V250.547C188.028 251.011 188.94 251.283 189.756 251.283C190.796 251.283 191.372 250.899 191.372 250.179C191.372 249.683 191.004 249.347 190.364 249.203L189.052 248.915C187.82 248.643 187.132 247.875 187.132 246.723C187.132 245.315 188.348 244.387 190.028 244.387C191.084 244.387 191.868 244.643 192.476 244.915V246.323C191.676 245.907 190.78 245.667 190.028 245.667C189.02 245.667 188.572 246.131 188.572 246.723C188.572 247.123 188.86 247.491 189.5 247.635L190.716 247.907C192.108 248.211 192.844 249.011 192.844 250.179C192.844 251.715 191.468 252.563 189.756 252.563ZM197.438 252.563C196.126 252.563 195.278 251.827 195.278 250.435V245.923H193.886V244.643H195.374V242.371L196.718 241.571V244.643H198.59V245.923H196.718V250.211C196.718 250.915 197.102 251.267 197.87 251.267C198.126 251.267 198.414 251.219 198.59 251.155V252.403C198.462 252.451 197.95 252.563 197.438 252.563ZM203.908 252.563C201.764 252.563 199.956 251.171 199.956 248.451C199.956 245.987 201.7 244.387 203.732 244.387C206.116 244.387 207.492 246.115 207.492 248.531C207.492 248.723 207.476 248.947 207.46 249.043H201.508C201.572 250.323 202.612 251.235 203.908 251.235C205.156 251.235 206.084 250.883 207.124 250.067V251.491C206.468 252.003 205.476 252.563 203.908 252.563ZM201.556 247.795H205.924C205.892 246.579 205.124 245.715 203.732 245.715C202.468 245.715 201.62 246.691 201.556 247.795ZM214.961 240.723H216.401V252.323H214.961V251.491C214.401 252.067 213.649 252.563 212.449 252.563C210.193 252.563 208.769 250.739 208.769 248.451C208.769 246.195 210.193 244.387 212.449 244.387C213.649 244.387 214.401 244.867 214.961 245.443V240.723ZM214.961 249.923V247.011C214.497 246.355 213.729 245.747 212.705 245.747C211.233 245.747 210.289 246.771 210.289 248.451C210.289 250.163 211.233 251.203 212.705 251.203C213.729 251.203 214.497 250.579 214.961 249.923ZM227.595 244.387C229.851 244.387 231.275 246.195 231.275 248.451C231.275 250.739 229.851 252.563 227.595 252.563C226.395 252.563 225.643 252.067 225.083 251.491V252.323H223.643V240.723H225.083V245.443C225.643 244.867 226.395 244.387 227.595 244.387ZM227.339 251.203C228.811 251.203 229.755 250.163 229.755 248.451C229.755 246.771 228.811 245.747 227.339 245.747C226.315 245.747 225.547 246.355 225.083 247.011V249.923C225.547 250.579 226.315 251.203 227.339 251.203ZM233.15 255.539L235.15 251.475L231.758 244.643H233.422L235.902 249.939L238.286 244.643H239.982L234.846 255.539H233.15ZM248.704 252.563C247.392 252.563 246.544 251.827 246.544 250.435V245.923H245.152V244.643H246.64V242.371L247.984 241.571V244.643H249.856V245.923H247.984V250.211C247.984 250.915 248.368 251.267 249.136 251.267C249.392 251.267 249.68 251.219 249.856 251.155V252.403C249.728 252.451 249.216 252.563 248.704 252.563ZM251.862 252.323V240.723H253.302V245.347C253.83 244.819 254.614 244.387 255.622 244.387C257.094 244.387 258.55 245.379 258.55 247.251V252.323H257.11V247.619C257.11 246.451 256.246 245.763 255.286 245.763C254.47 245.763 253.798 246.163 253.302 246.787V252.323H251.862ZM264.364 252.563C262.028 252.563 260.316 250.819 260.316 248.467C260.316 246.131 262.028 244.387 264.364 244.387C266.7 244.387 268.412 246.131 268.412 248.467C268.412 250.819 266.7 252.563 264.364 252.563ZM264.364 251.203C265.676 251.203 266.892 250.259 266.892 248.467C266.892 246.691 265.676 245.747 264.364 245.747C263.052 245.747 261.836 246.691 261.836 248.467C261.836 250.259 263.052 251.203 264.364 251.203ZM273.147 252.563C271.675 252.563 270.251 251.571 270.251 249.699V244.643H271.691V249.331C271.691 250.499 272.523 251.187 273.483 251.187C274.299 251.187 274.939 250.803 275.435 250.179V244.643H276.875V252.323H275.467V251.587C274.939 252.131 274.171 252.563 273.147 252.563ZM281.506 252.563C280.546 252.563 279.538 252.275 278.898 251.939V250.547C279.778 251.011 280.69 251.283 281.506 251.283C282.546 251.283 283.122 250.899 283.122 250.179C283.122 249.683 282.754 249.347 282.114 249.203L280.802 248.915C279.57 248.643 278.882 247.875 278.882 246.723C278.882 245.315 280.098 244.387 281.778 244.387C282.834 244.387 283.618 244.643 284.226 244.915V246.323C283.426 245.907 282.53 245.667 281.778 245.667C280.77 245.667 280.322 246.131 280.322 246.723C280.322 247.123 280.61 247.491 281.25 247.635L282.466 247.907C283.858 248.211 284.594 249.011 284.594 250.179C284.594 251.715 283.218 252.563 281.506 252.563ZM289.076 252.563C287.348 252.563 286.116 251.587 286.116 249.875C286.116 248.291 287.508 247.379 289.076 247.379C289.94 247.379 290.756 247.587 291.252 247.859V247.043C291.252 246.291 290.676 245.667 289.492 245.667C288.372 245.667 287.268 246.099 286.564 246.547V245.091C287.396 244.675 288.34 244.387 289.492 244.387C291.78 244.387 292.692 245.699 292.692 247.203V252.323H291.3V251.699C290.836 252.147 290.052 252.563 289.076 252.563ZM289.332 251.331C290.244 251.331 290.964 250.851 291.252 250.563V249.155C290.964 248.931 290.212 248.579 289.332 248.579C288.356 248.579 287.62 249.043 287.62 249.875C287.62 250.771 288.356 251.331 289.332 251.331ZM294.94 252.323V244.643H296.348V245.379C296.876 244.835 297.644 244.387 298.668 244.387C300.14 244.387 301.564 245.379 301.564 247.251V252.323H300.124V247.619C300.124 246.451 299.292 245.763 298.332 245.763C297.516 245.763 296.876 246.163 296.38 246.787V252.323H294.94ZM309.523 240.723H310.963V252.323H309.523V251.491C308.963 252.067 308.211 252.563 307.011 252.563C304.755 252.563 303.331 250.739 303.331 248.451C303.331 246.195 304.755 244.387 307.011 244.387C308.211 244.387 308.963 244.867 309.523 245.443V240.723ZM309.523 249.923V247.011C309.059 246.355 308.291 245.747 307.267 245.747C305.795 245.747 304.851 246.771 304.851 248.451C304.851 250.163 305.795 251.203 307.267 251.203C308.291 251.203 309.059 250.579 309.523 249.923ZM315.662 252.563C314.702 252.563 313.694 252.275 313.054 251.939V250.547C313.934 251.011 314.846 251.283 315.662 251.283C316.702 251.283 317.278 250.899 317.278 250.179C317.278 249.683 316.91 249.347 316.27 249.203L314.958 248.915C313.726 248.643 313.038 247.875 313.038 246.723C313.038 245.315 314.254 244.387 315.934 244.387C316.99 244.387 317.774 244.643 318.382 244.915V246.323C317.582 245.907 316.686 245.667 315.934 245.667C314.926 245.667 314.478 246.131 314.478 246.723C314.478 247.123 314.766 247.491 315.406 247.635L316.622 247.907C318.014 248.211 318.75 249.011 318.75 250.179C318.75 251.715 317.374 252.563 315.662 252.563ZM328.848 252.563C326.512 252.563 324.8 250.819 324.8 248.467C324.8 246.131 326.512 244.387 328.848 244.387C331.184 244.387 332.896 246.131 332.896 248.467C332.896 250.819 331.184 252.563 328.848 252.563ZM328.848 251.203C330.16 251.203 331.376 250.259 331.376 248.467C331.376 246.691 330.16 245.747 328.848 245.747C327.536 245.747 326.32 246.691 326.32 248.467C326.32 250.259 327.536 251.203 328.848 251.203ZM335.279 252.323V245.923H333.855V244.643H335.311V243.331C335.311 241.747 336.223 240.691 337.919 240.691C338.335 240.691 338.559 240.739 338.751 240.787V242.179C338.623 242.131 338.351 242.067 338.015 242.067C337.487 242.067 336.719 242.355 336.719 243.411V244.643H338.735V245.923H336.719V252.323H335.279ZM350.586 240.723H352.026V252.323H350.586V251.491C350.026 252.067 349.274 252.563 348.074 252.563C345.818 252.563 344.394 250.739 344.394 248.451C344.394 246.195 345.818 244.387 348.074 244.387C349.274 244.387 350.026 244.867 350.586 245.443V240.723ZM350.586 249.923V247.011C350.122 246.355 349.354 245.747 348.33 245.747C346.858 245.747 345.914 246.771 345.914 248.451C345.914 250.163 346.858 251.203 348.33 251.203C349.354 251.203 350.122 250.579 350.586 249.923ZM357.893 252.563C355.749 252.563 353.941 251.171 353.941 248.451C353.941 245.987 355.685 244.387 357.717 244.387C360.101 244.387 361.477 246.115 361.477 248.531C361.477 248.723 361.461 248.947 361.445 249.043H355.493C355.557 250.323 356.597 251.235 357.893 251.235C359.141 251.235 360.069 250.883 361.109 250.067V251.491C360.453 252.003 359.461 252.563 357.893 252.563ZM355.541 247.795H359.909C359.877 246.579 359.109 245.715 357.717 245.715C356.453 245.715 355.605 246.691 355.541 247.795ZM365.317 252.323L362.117 244.643H363.765L366.085 250.595L368.421 244.643H369.989L366.837 252.323H365.317ZM374.58 252.563C372.436 252.563 370.628 251.171 370.628 248.451C370.628 245.987 372.372 244.387 374.404 244.387C376.788 244.387 378.164 246.115 378.164 248.531C378.164 248.723 378.148 248.947 378.132 249.043H372.18C372.244 250.323 373.284 251.235 374.58 251.235C375.828 251.235 376.756 250.883 377.796 250.067V251.491C377.14 252.003 376.148 252.563 374.58 252.563ZM372.228 247.795H376.596C376.564 246.579 375.796 245.715 374.404 245.715C373.14 245.715 372.292 246.691 372.228 247.795ZM380.081 252.323V240.723H381.521V252.323H380.081ZM387.489 252.563C385.153 252.563 383.441 250.819 383.441 248.467C383.441 246.131 385.153 244.387 387.489 244.387C389.825 244.387 391.537 246.131 391.537 248.467C391.537 250.819 389.825 252.563 387.489 252.563ZM387.489 251.203C388.801 251.203 390.017 250.259 390.017 248.467C390.017 246.691 388.801 245.747 387.489 245.747C386.177 245.747 384.961 246.691 384.961 248.467C384.961 250.259 386.177 251.203 387.489 251.203ZM393.456 255.347V244.643H394.896V245.443C395.456 244.867 396.208 244.387 397.408 244.387C399.664 244.387 401.088 246.195 401.088 248.451C401.088 250.739 399.664 252.563 397.408 252.563C396.208 252.563 395.456 252.067 394.896 251.491V255.347H393.456ZM397.152 251.203C398.624 251.203 399.568 250.163 399.568 248.451C399.568 246.771 398.624 245.747 397.152 245.747C396.128 245.747 395.36 246.355 394.896 247.011V249.923C395.36 250.579 396.128 251.203 397.152 251.203ZM406.315 252.563C404.171 252.563 402.363 251.171 402.363 248.451C402.363 245.987 404.107 244.387 406.139 244.387C408.523 244.387 409.899 246.115 409.899 248.531C409.899 248.723 409.883 248.947 409.867 249.043H403.915C403.979 250.323 405.019 251.235 406.315 251.235C407.563 251.235 408.491 250.883 409.531 250.067V251.491C408.875 252.003 407.883 252.563 406.315 252.563ZM403.963 247.795H408.331C408.299 246.579 407.531 245.715 406.139 245.715C404.875 245.715 404.027 246.691 403.963 247.795ZM411.815 252.323V244.643H413.223V245.971C413.623 244.947 414.567 244.387 415.575 244.387C415.815 244.387 415.991 244.419 416.103 244.435V246.035C415.879 246.003 415.623 245.987 415.415 245.987C414.151 245.987 413.463 246.819 413.255 247.555V252.323H411.815ZM420.006 252.563C419.046 252.563 418.038 252.275 417.398 251.939V250.547C418.278 251.011 419.19 251.283 420.006 251.283C421.046 251.283 421.622 250.899 421.622 250.179C421.622 249.683 421.254 249.347 420.614 249.203L419.302 248.915C418.07 248.643 417.382 247.875 417.382 246.723C417.382 245.315 418.598 244.387 420.278 244.387C421.334 244.387 422.118 244.643 422.726 244.915V246.323C421.926 245.907 421.03 245.667 420.278 245.667C419.27 245.667 418.822 246.131 418.822 246.723C418.822 247.123 419.11 247.491 419.75 247.635L420.966 247.907C422.358 248.211 423.094 249.011 423.094 250.179C423.094 251.715 421.718 252.563 420.006 252.563ZM432.264 252.563C430.536 252.563 429.304 251.587 429.304 249.875C429.304 248.291 430.696 247.379 432.264 247.379C433.128 247.379 433.944 247.587 434.44 247.859V247.043C434.44 246.291 433.864 245.667 432.68 245.667C431.56 245.667 430.456 246.099 429.752 246.547V245.091C430.584 244.675 431.528 244.387 432.68 244.387C434.968 244.387 435.88 245.699 435.88 247.203V252.323H434.488V251.699C434.024 252.147 433.24 252.563 432.264 252.563ZM432.52 251.331C433.432 251.331 434.152 250.851 434.44 250.563V249.155C434.152 248.931 433.4 248.579 432.52 248.579C431.544 248.579 430.808 249.043 430.808 249.875C430.808 250.771 431.544 251.331 432.52 251.331ZM438.128 252.323V244.643H439.536V245.379C440.064 244.835 440.832 244.387 441.856 244.387C443.328 244.387 444.752 245.379 444.752 247.251V252.323H443.312V247.619C443.312 246.451 442.48 245.763 441.52 245.763C440.704 245.763 440.064 246.163 439.568 246.787V252.323H438.128ZM452.711 240.723H454.151V252.323H452.711V251.491C452.151 252.067 451.399 252.563 450.199 252.563C447.943 252.563 446.519 250.739 446.519 248.451C446.519 246.195 447.943 244.387 450.199 244.387C451.399 244.387 452.151 244.867 452.711 245.443V240.723ZM452.711 249.923V247.011C452.247 246.355 451.479 245.747 450.455 245.747C448.983 245.747 448.039 246.771 448.039 248.451C448.039 250.163 448.983 251.203 450.455 251.203C451.479 251.203 452.247 250.579 452.711 249.923ZM464.865 245.795C463.617 245.795 462.289 246.675 462.289 248.467C462.289 250.259 463.617 251.155 464.865 251.155C465.761 251.155 466.481 250.947 467.265 250.419V252.019C466.689 252.291 465.905 252.563 464.865 252.563C462.497 252.563 460.753 250.867 460.753 248.467C460.753 246.067 462.497 244.387 464.865 244.387C465.905 244.387 466.689 244.659 467.265 244.931V246.531C466.481 246.003 465.761 245.795 464.865 245.795ZM472.754 252.563C470.418 252.563 468.706 250.819 468.706 248.467C468.706 246.131 470.418 244.387 472.754 244.387C475.09 244.387 476.802 246.131 476.802 248.467C476.802 250.819 475.09 252.563 472.754 252.563ZM472.754 251.203C474.066 251.203 475.282 250.259 475.282 248.467C475.282 246.691 474.066 245.747 472.754 245.747C471.442 245.747 470.226 246.691 470.226 248.467C470.226 250.259 471.442 251.203 472.754 251.203ZM487.265 244.387C488.737 244.387 490.113 245.379 490.113 247.251V252.323H488.673V247.619C488.673 246.451 488.001 245.763 487.041 245.763C486.241 245.763 485.601 246.131 485.105 246.755C485.121 246.915 485.137 247.075 485.137 247.251V252.323H483.713V247.619C483.713 246.451 483.073 245.763 482.113 245.763C481.297 245.763 480.657 246.163 480.161 246.787V252.323H478.721V244.643H480.129V245.379C480.657 244.835 481.425 244.387 482.449 244.387C483.329 244.387 484.129 244.739 484.609 245.443C485.041 245.027 485.889 244.387 487.265 244.387ZM492.518 255.347V244.643H493.958V245.443C494.518 244.867 495.27 244.387 496.47 244.387C498.726 244.387 500.15 246.195 500.15 248.451C500.15 250.739 498.726 252.563 496.47 252.563C495.27 252.563 494.518 252.067 493.958 251.491V255.347H492.518ZM496.214 251.203C497.686 251.203 498.63 250.163 498.63 248.451C498.63 246.771 497.686 245.747 496.214 245.747C495.19 245.747 494.422 246.355 493.958 247.011V249.923C494.422 250.579 495.19 251.203 496.214 251.203ZM504.545 252.563C502.817 252.563 501.585 251.587 501.585 249.875C501.585 248.291 502.977 247.379 504.545 247.379C505.409 247.379 506.225 247.587 506.721 247.859V247.043C506.721 246.291 506.145 245.667 504.961 245.667C503.841 245.667 502.737 246.099 502.033 246.547V245.091C502.865 244.675 503.809 244.387 504.961 244.387C507.249 244.387 508.161 245.699 508.161 247.203V252.323H506.769V251.699C506.305 252.147 505.521 252.563 504.545 252.563ZM504.801 251.331C505.713 251.331 506.433 250.851 506.721 250.563V249.155C506.433 248.931 505.681 248.579 504.801 248.579C503.825 248.579 503.089 249.043 503.089 249.875C503.089 250.771 503.825 251.331 504.801 251.331ZM510.409 252.323V244.643H511.817V245.379C512.345 244.835 513.113 244.387 514.137 244.387C515.609 244.387 517.033 245.379 517.033 247.251V252.323H515.593V247.619C515.593 246.451 514.761 245.763 513.801 245.763C512.985 245.763 512.345 246.163 511.849 246.787V252.323H510.409ZM520.16 242.771C519.568 242.771 519.12 242.307 519.12 241.715C519.12 241.107 519.568 240.643 520.16 240.643C520.768 240.643 521.216 241.107 521.216 241.715C521.216 242.307 520.768 242.771 520.16 242.771ZM519.456 252.323V244.643H520.896V252.323H519.456ZM526.768 252.563C524.624 252.563 522.816 251.171 522.816 248.451C522.816 245.987 524.56 244.387 526.592 244.387C528.976 244.387 530.352 246.115 530.352 248.531C530.352 248.723 530.336 248.947 530.32 249.043H524.368C524.432 250.323 525.472 251.235 526.768 251.235C528.016 251.235 528.944 250.883 529.984 250.067V251.491C529.328 252.003 528.336 252.563 526.768 252.563ZM524.416 247.795H528.784C528.752 246.579 527.984 245.715 526.592 245.715C525.328 245.715 524.48 246.691 524.416 247.795ZM534.412 252.563C533.452 252.563 532.444 252.275 531.804 251.939V250.547C532.684 251.011 533.596 251.283 534.412 251.283C535.452 251.283 536.028 250.899 536.028 250.179C536.028 249.683 535.66 249.347 535.02 249.203L533.708 248.915C532.476 248.643 531.788 247.875 531.788 246.723C531.788 245.315 533.004 244.387 534.684 244.387C535.74 244.387 536.524 244.643 537.132 244.915V246.323C536.332 245.907 535.436 245.667 534.684 245.667C533.676 245.667 533.228 246.131 533.228 246.723C533.228 247.123 533.516 247.491 534.156 247.635L535.372 247.907C536.764 248.211 537.5 249.011 537.5 250.179C537.5 251.715 536.124 252.563 534.412 252.563ZM540.447 252.403C539.823 252.403 539.343 251.923 539.343 251.299C539.343 250.675 539.823 250.179 540.447 250.179C541.071 250.179 541.567 250.675 541.567 251.299C541.567 251.923 541.071 252.403 540.447 252.403Z" fill="black"/>
<defs>
<filter id="filter0_f_2_378" x="260.645" y="-459.255" width="800" height="800" filterUnits="userSpaceOnUse" color-interpolation-filters="sRGB">
<feFlood flood-opacity="0" result="BackgroundImageFix"/>
<feBlend mode="normal" in="SourceGraphic" in2="BackgroundImageFix" result="shape"/>
<feGaussianBlur stdDeviation="120" result="effect1_foregroundBlur_2_378"/>
</filter>
<filter id="filter1_f_2_378" x="-379.355" y="-186.255" width="800" height="800" filterUnits="userSpaceOnUse" color-interpolation-filters="sRGB">
<feFlood flood-opacity="0" result="BackgroundImageFix"/>
<feBlend mode="normal" in="SourceGraphic" in2="BackgroundImageFix" result="shape"/>
<feGaussianBlur stdDeviation="120" result="effect1_foregroundBlur_2_378"/>
</filter>
<filter id="filter2_f_2_378" x="260.645" y="80.7447" width="800" height="800" filterUnits="userSpaceOnUse" color-interpolation-filters="sRGB">
<feFlood flood-opacity="0" result="BackgroundImageFix"/>
<feBlend mode="normal" in="SourceGraphic" in2="BackgroundImageFix" result="shape"/>
<feGaussianBlur stdDeviation="120" result="effect1_foregroundBlur_2_378"/>
</filter>
<filter id="filter3_f_2_378" x="-379.355" y="13.7447" width="800" height="800" filterUnits="userSpaceOnUse" color-interpolation-filters="sRGB">
<feFlood flood-opacity="0" result="BackgroundImageFix"/>
<feBlend mode="normal" in="SourceGraphic" in2="BackgroundImageFix" result="shape"/>
<feGaussianBlur stdDeviation="120" result="effect1_foregroundBlur_2_378"/>
</filter>
<linearGradient id="paint0_linear_2_378" x1="0.644544" y1="320.745" x2="711.429" y2="26.824" gradientUnits="userSpaceOnUse">
<stop stop-color="#18E299" stop-opacity="0.09"/>
<stop offset="0.729167" stop-color="#0D9373" stop-opacity="0.08"/>
</linearGradient>
<radialGradient id="paint1_radial_2_378" cx="0" cy="0" r="1" gradientUnits="userSpaceOnUse" gradientTransform="translate(nan nan) rotate(nan) scale(nan nan)">
<stop offset="0.348958" stop-color="#84FFD3"/>
<stop offset="0.880208" stop-color="#18E299" stop-opacity="0"/>
</radialGradient>
<radialGradient id="paint2_radial_2_378" cx="0" cy="0" r="1" gradientUnits="userSpaceOnUse" gradientTransform="translate(nan nan) rotate(nan) scale(nan nan)">
<stop offset="0.348958" stop-color="#84FFD3"/>
<stop offset="0.880208" stop-color="#18E299" stop-opacity="0"/>
</radialGradient>
<radialGradient id="paint3_radial_2_378" cx="0" cy="0" r="1" gradientUnits="userSpaceOnUse" gradientTransform="translate(nan nan) rotate(nan) scale(nan nan)">
<stop offset="0.348958" stop-color="#84FFD3"/>
<stop offset="0.880208" stop-color="#18E299" stop-opacity="0"/>
</radialGradient>
<radialGradient id="paint4_radial_2_378" cx="0" cy="0" r="1" gradientUnits="userSpaceOnUse" gradientTransform="translate(nan nan) rotate(nan) scale(nan nan)">
<stop offset="0.348958" stop-color="#84FFD3"/>
<stop offset="0.880208" stop-color="#18E299" stop-opacity="0"/>
</radialGradient>
<radialGradient id="paint5_radial_2_378" cx="0" cy="0" r="1" gradientUnits="userSpaceOnUse" gradientTransform="translate(nan nan) rotate(nan) scale(nan nan)">
<stop offset="0.348958" stop-color="#84FFD3"/>
<stop offset="0.880208" stop-color="#18E299" stop-opacity="0"/>
</radialGradient>
<radialGradient id="paint6_radial_2_378" cx="0" cy="0" r="1" gradientUnits="userSpaceOnUse" gradientTransform="translate(nan nan) rotate(nan) scale(nan nan)">
<stop offset="0.348958" stop-color="#84FFD3"/>
<stop offset="0.880208" stop-color="#18E299" stop-opacity="0"/>
</radialGradient>
<radialGradient id="paint7_radial_2_378" cx="0" cy="0" r="1" gradientUnits="userSpaceOnUse" gradientTransform="translate(nan nan) rotate(nan) scale(nan nan)">
<stop offset="0.348958" stop-color="#84FFD3"/>
<stop offset="0.880208" stop-color="#18E299" stop-opacity="0"/>
</radialGradient>
<radialGradient id="paint8_radial_2_378" cx="0" cy="0" r="1" gradientUnits="userSpaceOnUse" gradientTransform="translate(nan nan) rotate(nan) scale(nan nan)">
<stop offset="0.348958" stop-color="#84FFD3"/>
<stop offset="0.880208" stop-color="#18E299" stop-opacity="0"/>
</radialGradient>
<linearGradient id="paint9_linear_2_378" x1="nan" y1="nan" x2="nan" y2="nan" gradientUnits="userSpaceOnUse">
<stop stop-color="white" stop-opacity="0.1"/>
<stop offset="0.5" stop-color="white"/>
<stop offset="1" stop-color="white" stop-opacity="0.1"/>
</linearGradient>
<linearGradient id="paint10_linear_2_378" x1="511.645" y1="-0.25528" x2="189.645" y2="321.745" gradientUnits="userSpaceOnUse">
<stop stop-color="white" stop-opacity="0.1"/>
<stop offset="0.5" stop-color="white"/>
<stop offset="1" stop-color="white" stop-opacity="0.1"/>
</linearGradient>
<linearGradient id="paint11_linear_2_378" x1="511.645" y1="321.745" x2="189.645" y2="-0.25528" gradientUnits="userSpaceOnUse">
<stop stop-color="white" stop-opacity="0.1"/>
<stop offset="0.5" stop-color="white"/>
<stop offset="1" stop-color="white" stop-opacity="0.1"/>
</linearGradient>
</defs>
</svg>
