<svg width="701" height="321" viewBox="0 0 701 321" fill="none" xmlns="http://www.w3.org/2000/svg">
<g clip-path="url(#clip0_7_362)">
<mask id="mask0_7_362" style="mask-type:luminance" maskUnits="userSpaceOnUse" x="4" y="0" width="697" height="321">
<path d="M684.712 0.543823H20.0659C11.2737 0.543823 4.14622 7.70727 4.14622 16.5438V304.544C4.14622 313.38 11.2737 320.544 20.0659 320.544H684.712C693.504 320.544 700.632 313.38 700.632 304.544V16.5438C700.632 7.70727 693.504 0.543823 684.712 0.543823Z" fill="white"/>
</mask>
<g mask="url(#mask0_7_362)">
<path d="M684.712 0.543823H20.0659C11.2737 0.543823 4.14621 7.70727 4.14621 16.5438V304.544C4.14621 313.38 11.2737 320.544 20.0659 320.544H684.712C693.504 320.544 700.632 313.38 700.632 304.544V16.5438C700.632 7.70727 693.504 0.543823 684.712 0.543823Z" fill="white"/>
<g opacity="0.8" filter="url(#filter0_f_7_362)">
<path d="M660.832 100.544C748.754 100.544 820.029 28.9094 820.029 -59.4562C820.029 -147.822 748.754 -219.456 660.832 -219.456C572.911 -219.456 501.636 -147.822 501.636 -59.4562C501.636 28.9094 572.911 100.544 660.832 100.544Z" fill="white" fill-opacity="0.4"/>
</g>
<g opacity="0.8" filter="url(#filter1_f_7_362)">
<path d="M24.0458 373.544C111.968 373.544 183.242 301.909 183.242 213.544C183.242 125.178 111.968 53.5438 24.0458 53.5438C-63.8761 53.5438 -135.151 125.178 -135.151 213.544C-135.151 301.909 -63.8761 373.544 24.0458 373.544Z" fill="white" fill-opacity="0.33"/>
</g>
<g opacity="0.8" filter="url(#filter2_f_7_362)">
</g>
<g opacity="0.8" filter="url(#filter3_f_7_362)">
<path d="M24.0458 573.544C111.968 573.544 183.242 501.909 183.242 413.544C183.242 325.178 111.968 253.544 24.0458 253.544C-63.8761 253.544 -135.151 325.178 -135.151 413.544C-135.151 501.909 -63.8761 573.544 24.0458 573.544Z" fill="white" fill-opacity="0.22"/>
</g>
<path opacity="0.2" d="M4.14621 50.5438H700.632" stroke="url(#paint0_radial_7_362)" stroke-dasharray="4 4"/>
<path opacity="0.1" d="M4.14621 82.5438H700.632" stroke="url(#paint1_radial_7_362)" stroke-dasharray="4 4"/>
<path opacity="0.2" d="M241.946 0.543823V320.544" stroke="url(#paint2_radial_7_362)" stroke-dasharray="4 4"/>
<path opacity="0.1" d="M273.786 0.543823V320.544" stroke="url(#paint3_radial_7_362)" stroke-dasharray="4 4"/>
<path opacity="0.2" d="M462.832 0.543823V320.544" stroke="url(#paint4_radial_7_362)" stroke-dasharray="4 4"/>
<path opacity="0.1" d="M430.992 0.543823V320.544" stroke="url(#paint5_radial_7_362)" stroke-dasharray="4 4"/>
<path opacity="0.2" d="M4.14621 271.544H700.632" stroke="url(#paint6_radial_7_362)" stroke-dasharray="4 4"/>
<path opacity="0.1" d="M4.14621 239.544H700.632" stroke="url(#paint7_radial_7_362)" stroke-dasharray="4 4"/>
<g style="mix-blend-mode:overlay" opacity="0.1">
<path d="M4.14621 160.544H700.632" stroke="url(#paint8_linear_7_362)"/>
</g>
<g style="mix-blend-mode:overlay" opacity="0.2">
<path d="M512.581 -0.456177L192.197 321.544" stroke="url(#paint9_linear_7_362)"/>
</g>
<g style="mix-blend-mode:overlay" opacity="0.2">
<path d="M512.581 321.544L192.197 -0.456177" stroke="url(#paint10_linear_7_362)"/>
</g>
<g style="mix-blend-mode:overlay" opacity="0.1">
<path d="M352.389 271.544C413.385 271.544 462.832 221.847 462.832 160.544C462.832 99.2402 413.385 49.5438 352.389 49.5438C291.393 49.5438 241.946 99.2402 241.946 160.544C241.946 221.847 291.393 271.544 352.389 271.544Z" stroke="white"/>
</g>
<g style="mix-blend-mode:overlay" opacity="0.1">
<path d="M352.389 239.544C395.8 239.544 430.992 204.174 430.992 160.544C430.992 116.913 395.8 81.5438 352.389 81.5438C308.977 81.5438 273.786 116.913 273.786 160.544C273.786 204.174 308.977 239.544 352.389 239.544Z" stroke="white"/>
</g>
</g>
<path d="M358.465 169.984V164.736L376.065 144.512H358.721V139.264H383.489V144.32L365.889 164.544H383.809V169.984H358.465Z" fill="black" fill-opacity="0.9"/>
<path d="M392.551 182.848L400.551 166.592L386.983 139.264H393.639L403.559 160.448L413.095 139.264H419.879L399.335 182.848H392.551Z" fill="black" fill-opacity="0.9"/>
<path d="M459.826 138.24C465.714 138.24 471.218 142.208 471.218 149.696V169.984H465.458V151.168C465.458 146.496 462.77 143.744 458.93 143.744C455.73 143.744 453.17 145.216 451.186 147.712C451.25 148.352 451.314 148.992 451.314 149.696V169.984H445.618V151.168C445.618 146.496 443.058 143.744 439.218 143.744C435.954 143.744 433.394 145.344 431.41 147.84V169.984H425.65V139.264H431.282V142.208C433.394 140.032 436.466 138.24 440.562 138.24C444.082 138.24 447.282 139.648 449.202 142.464C450.93 140.8 454.322 138.24 459.826 138.24Z" fill="black" fill-opacity="0.9"/>
<path d="M494.086 170.944C485.51 170.944 478.278 165.376 478.278 154.496C478.278 144.64 485.254 138.24 493.382 138.24C502.918 138.24 508.422 145.152 508.422 154.816C508.422 155.584 508.358 156.48 508.294 156.864H484.486C484.742 161.984 488.902 165.632 494.086 165.632C499.078 165.632 502.79 164.224 506.95 160.96V166.656C504.326 168.704 500.358 170.944 494.086 170.944ZM484.678 151.872H502.15C502.022 147.008 498.95 143.552 493.382 143.552C488.326 143.552 484.934 147.456 484.678 151.872Z" fill="black" fill-opacity="0.9"/>
<mask id="mask1_7_362" style="mask-type:luminance" maskUnits="userSpaceOnUse" x="4" y="0" width="697" height="321">
<path d="M684.712 0.543823H20.0659C11.2737 0.543823 4.14622 7.70727 4.14622 16.5438V304.544C4.14622 313.38 11.2737 320.544 20.0659 320.544H684.712C693.504 320.544 700.632 313.38 700.632 304.544V16.5438C700.632 7.70727 693.504 0.543823 684.712 0.543823Z" fill="white"/>
</mask>
<g mask="url(#mask1_7_362)">
<path d="M684.712 0.543823H20.0659C11.2737 0.543823 4.14621 7.70727 4.14621 16.5438V304.544C4.14621 313.38 11.2737 320.544 20.0659 320.544H684.712C693.504 320.544 700.632 313.38 700.632 304.544V16.5438C700.632 7.70727 693.504 0.543823 684.712 0.543823Z" fill="url(#paint11_linear_7_362)"/>
<g opacity="0.8" filter="url(#filter4_f_7_362)">
<path d="M660.832 100.544C748.754 100.544 820.029 28.9094 820.029 -59.4562C820.029 -147.822 748.754 -219.456 660.832 -219.456C572.911 -219.456 501.636 -147.822 501.636 -59.4562C501.636 28.9094 572.911 100.544 660.832 100.544Z" fill="#18E244" fill-opacity="0.4"/>
</g>
<g opacity="0.8" filter="url(#filter5_f_7_362)">
<path d="M24.0458 373.544C111.968 373.544 183.242 301.909 183.242 213.544C183.242 125.178 111.968 53.5438 24.0458 53.5438C-63.8761 53.5438 -135.151 125.178 -135.151 213.544C-135.151 301.909 -63.8761 373.544 24.0458 373.544Z" fill="#18CAE2" fill-opacity="0.33"/>
</g>
<g opacity="0.8" filter="url(#filter6_f_7_362)">
</g>
<g opacity="0.8" filter="url(#filter7_f_7_362)">
<path d="M24.0458 573.544C111.968 573.544 183.242 501.909 183.242 413.544C183.242 325.178 111.968 253.544 24.0458 253.544C-63.8761 253.544 -135.151 325.178 -135.151 413.544C-135.151 501.909 -63.8761 573.544 24.0458 573.544Z" fill="#4018E2" fill-opacity="0.22"/>
</g>
<path opacity="0.2" d="M4.14621 50.5438H700.632" stroke="url(#paint12_radial_7_362)" stroke-dasharray="4 4"/>
<path opacity="0.1" d="M4.14621 82.5438H700.632" stroke="url(#paint13_radial_7_362)" stroke-dasharray="4 4"/>
<path opacity="0.2" d="M241.946 0.543823V320.544" stroke="url(#paint14_radial_7_362)" stroke-dasharray="4 4"/>
<path opacity="0.1" d="M273.786 0.543823V320.544" stroke="url(#paint15_radial_7_362)" stroke-dasharray="4 4"/>
<path opacity="0.2" d="M462.832 0.543823V320.544" stroke="url(#paint16_radial_7_362)" stroke-dasharray="4 4"/>
<path opacity="0.1" d="M430.992 0.543823V320.544" stroke="url(#paint17_radial_7_362)" stroke-dasharray="4 4"/>
<path opacity="0.2" d="M4.14621 271.544H700.632" stroke="url(#paint18_radial_7_362)" stroke-dasharray="4 4"/>
<path opacity="0.1" d="M4.14621 239.544H700.632" stroke="url(#paint19_radial_7_362)" stroke-dasharray="4 4"/>
<g style="mix-blend-mode:overlay" opacity="0.1">
<path d="M4.14621 160.544H700.632" stroke="url(#paint20_linear_7_362)"/>
</g>
<g style="mix-blend-mode:overlay" opacity="0.2">
<path d="M512.581 -0.456177L192.197 321.544" stroke="url(#paint21_linear_7_362)"/>
</g>
<g style="mix-blend-mode:overlay" opacity="0.2">
<path d="M512.581 321.544L192.197 -0.456177" stroke="url(#paint22_linear_7_362)"/>
</g>
<g style="mix-blend-mode:overlay" opacity="0.1">
<path d="M352.389 271.544C413.385 271.544 462.832 221.847 462.832 160.544C462.832 99.2402 413.385 49.5438 352.389 49.5438C291.393 49.5438 241.946 99.2402 241.946 160.544C241.946 221.847 291.393 271.544 352.389 271.544Z" stroke="white"/>
</g>
<g style="mix-blend-mode:overlay" opacity="0.1">
<path d="M352.389 239.544C395.8 239.544 430.992 204.174 430.992 160.544C430.992 116.913 395.8 81.5438 352.389 81.5438C308.977 81.5438 273.786 116.913 273.786 160.544C273.786 204.174 308.977 239.544 352.389 239.544Z" stroke="white"/>
</g>
</g>
<path d="M224.966 253.898C222.038 253.898 219.27 251.85 219.27 248.058C219.27 244.266 222.038 242.218 224.966 242.218C227.894 242.218 230.662 244.266 230.662 248.058C230.662 251.85 227.894 253.898 224.966 253.898ZM224.966 252.458C227.078 252.458 229.094 250.954 229.094 248.058C229.094 245.178 227.078 243.658 224.966 243.658C222.854 243.658 220.838 245.178 220.838 248.058C220.838 250.954 222.854 252.458 224.966 252.458ZM232.658 253.658V245.978H234.066V246.714C234.594 246.17 235.362 245.722 236.386 245.722C237.858 245.722 239.282 246.714 239.282 248.586V253.658H237.842V248.954C237.842 247.786 237.01 247.098 236.05 247.098C235.234 247.098 234.594 247.498 234.098 248.122V253.658H232.658ZM245.641 245.722C247.897 245.722 249.321 247.53 249.321 249.786C249.321 252.074 247.897 253.898 245.641 253.898C244.441 253.898 243.689 253.402 243.129 252.826V253.658H241.689V242.058H243.129V246.778C243.689 246.202 244.441 245.722 245.641 245.722ZM245.385 252.538C246.857 252.538 247.801 251.498 247.801 249.786C247.801 248.106 246.857 247.082 245.385 247.082C244.361 247.082 243.593 247.69 243.129 248.346V251.258C243.593 251.914 244.361 252.538 245.385 252.538ZM254.644 253.898C252.308 253.898 250.596 252.154 250.596 249.802C250.596 247.466 252.308 245.722 254.644 245.722C256.98 245.722 258.692 247.466 258.692 249.802C258.692 252.154 256.98 253.898 254.644 253.898ZM254.644 252.538C255.956 252.538 257.172 251.594 257.172 249.802C257.172 248.026 255.956 247.082 254.644 247.082C253.332 247.082 252.116 248.026 252.116 249.802C252.116 251.594 253.332 252.538 254.644 252.538ZM263.091 253.898C261.363 253.898 260.131 252.922 260.131 251.21C260.131 249.626 261.523 248.714 263.091 248.714C263.955 248.714 264.771 248.922 265.267 249.194V248.378C265.267 247.626 264.691 247.002 263.507 247.002C262.387 247.002 261.283 247.434 260.579 247.882V246.426C261.411 246.01 262.355 245.722 263.507 245.722C265.795 245.722 266.707 247.034 266.707 248.538V253.658H265.315V253.034C264.851 253.482 264.067 253.898 263.091 253.898ZM263.347 252.666C264.259 252.666 264.979 252.186 265.267 251.898V250.49C264.979 250.266 264.227 249.914 263.347 249.914C262.371 249.914 261.635 250.378 261.635 251.21C261.635 252.106 262.371 252.666 263.347 252.666ZM268.955 253.658V245.978H270.363V247.306C270.763 246.282 271.707 245.722 272.715 245.722C272.955 245.722 273.131 245.754 273.243 245.77V247.37C273.019 247.338 272.763 247.322 272.555 247.322C271.291 247.322 270.603 248.154 270.395 248.89V253.658H268.955ZM280.319 242.058H281.759V253.658H280.319V252.826C279.759 253.402 279.007 253.898 277.807 253.898C275.551 253.898 274.127 252.074 274.127 249.786C274.127 247.53 275.551 245.722 277.807 245.722C279.007 245.722 279.759 246.202 280.319 246.778V242.058ZM280.319 251.258V248.346C279.855 247.69 279.087 247.082 278.063 247.082C276.591 247.082 275.647 248.106 275.647 249.786C275.647 251.498 276.591 252.538 278.063 252.538C279.087 252.538 279.855 251.914 280.319 251.258ZM285.034 244.106C284.442 244.106 283.994 243.642 283.994 243.05C283.994 242.442 284.442 241.978 285.034 241.978C285.642 241.978 286.09 242.442 286.09 243.05C286.09 243.642 285.642 244.106 285.034 244.106ZM284.33 253.658V245.978H285.77V253.658H284.33ZM288.33 253.658V245.978H289.738V246.714C290.266 246.17 291.034 245.722 292.058 245.722C293.53 245.722 294.954 246.714 294.954 248.586V253.658H293.514V248.954C293.514 247.786 292.682 247.098 291.722 247.098C290.906 247.098 290.266 247.498 289.77 248.122V253.658H288.33ZM300.401 257.114C299.057 257.114 297.873 256.618 297.201 256.186V254.682C298.257 255.418 299.489 255.77 300.401 255.77C302.017 255.77 302.913 255.066 302.913 253.466V252.474C302.401 253.05 301.521 253.53 300.321 253.53C298.305 253.53 296.721 252.042 296.721 249.626C296.721 247.21 298.305 245.722 300.321 245.722C301.521 245.722 302.401 246.202 302.913 246.778V245.978H304.353V253.466C304.353 255.37 303.297 257.114 300.401 257.114ZM300.577 252.17C301.585 252.17 302.449 251.562 302.913 250.906V248.346C302.481 247.69 301.601 247.082 300.577 247.082C299.361 247.082 298.241 247.946 298.241 249.626C298.241 251.466 299.361 252.17 300.577 252.17ZM313.763 253.898C312.035 253.898 310.803 252.922 310.803 251.21C310.803 249.626 312.195 248.714 313.763 248.714C314.627 248.714 315.443 248.922 315.939 249.194V248.378C315.939 247.626 315.363 247.002 314.179 247.002C313.059 247.002 311.955 247.434 311.251 247.882V246.426C312.083 246.01 313.027 245.722 314.179 245.722C316.467 245.722 317.379 247.034 317.379 248.538V253.658H315.987V253.034C315.523 253.482 314.739 253.898 313.763 253.898ZM314.019 252.666C314.931 252.666 315.651 252.186 315.939 251.898V250.49C315.651 250.266 314.899 249.914 314.019 249.914C313.043 249.914 312.307 250.378 312.307 251.21C312.307 252.106 313.043 252.666 314.019 252.666ZM322.218 253.898C320.906 253.898 320.058 253.162 320.058 251.77V247.258H318.666V245.978H320.154V243.706L321.498 242.906V245.978H323.37V247.258H321.498V251.546C321.498 252.25 321.882 252.602 322.65 252.602C322.906 252.602 323.194 252.554 323.37 252.49V253.738C323.242 253.786 322.73 253.898 322.218 253.898ZM332.656 253.898C331.344 253.898 330.496 253.162 330.496 251.77V247.258H329.104V245.978H330.592V243.706L331.936 242.906V245.978H333.808V247.258H331.936V251.546C331.936 252.25 332.32 252.602 333.088 252.602C333.344 252.602 333.632 252.554 333.808 252.49V253.738C333.68 253.786 333.168 253.898 332.656 253.898ZM335.814 253.658V242.058H337.254V246.682C337.782 246.154 338.566 245.722 339.574 245.722C341.046 245.722 342.502 246.714 342.502 248.586V253.658H341.062V248.954C341.062 247.786 340.198 247.098 339.238 247.098C338.422 247.098 337.75 247.498 337.254 248.122V253.658H335.814ZM348.22 253.898C346.076 253.898 344.268 252.506 344.268 249.786C344.268 247.322 346.012 245.722 348.044 245.722C350.428 245.722 351.804 247.45 351.804 249.866C351.804 250.058 351.788 250.282 351.772 250.378H345.82C345.884 251.658 346.924 252.57 348.22 252.57C349.468 252.57 350.396 252.218 351.436 251.402V252.826C350.78 253.338 349.788 253.898 348.22 253.898ZM345.868 249.13H350.236C350.204 247.914 349.436 247.05 348.044 247.05C346.78 247.05 345.932 248.026 345.868 249.13ZM358.568 253.658V242.458H360.072V252.218H365.432V253.658H358.568ZM367.753 244.106C367.161 244.106 366.713 243.642 366.713 243.05C366.713 242.442 367.161 241.978 367.753 241.978C368.361 241.978 368.809 242.442 368.809 243.05C368.809 243.642 368.361 244.106 367.753 244.106ZM367.049 253.658V245.978H368.489V253.658H367.049ZM374.088 257.114C372.744 257.114 371.56 256.618 370.888 256.186V254.682C371.944 255.418 373.176 255.77 374.088 255.77C375.704 255.77 376.6 255.066 376.6 253.466V252.474C376.088 253.05 375.208 253.53 374.008 253.53C371.992 253.53 370.408 252.042 370.408 249.626C370.408 247.21 371.992 245.722 374.008 245.722C375.208 245.722 376.088 246.202 376.6 246.778V245.978H378.04V253.466C378.04 255.37 376.984 257.114 374.088 257.114ZM374.264 252.17C375.272 252.17 376.136 251.562 376.6 250.906V248.346C376.168 247.69 375.288 247.082 374.264 247.082C373.048 247.082 371.928 247.946 371.928 249.626C371.928 251.466 373.048 252.17 374.264 252.17ZM380.283 253.658V242.058H381.723V246.682C382.251 246.154 383.035 245.722 384.043 245.722C385.515 245.722 386.971 246.714 386.971 248.586V253.658H385.531V248.954C385.531 247.786 384.667 247.098 383.707 247.098C382.891 247.098 382.219 247.498 381.723 248.122V253.658H380.283ZM391.968 253.898C390.656 253.898 389.808 253.162 389.808 251.77V247.258H388.416V245.978H389.904V243.706L391.248 242.906V245.978H393.12V247.258H391.248V251.546C391.248 252.25 391.632 252.602 392.4 252.602C392.656 252.602 392.944 252.554 393.12 252.49V253.738C392.992 253.786 392.48 253.898 391.968 253.898ZM395.126 253.658V245.978H396.534V246.714C397.062 246.17 397.83 245.722 398.854 245.722C400.326 245.722 401.75 246.714 401.75 248.586V253.658H400.31V248.954C400.31 247.786 399.478 247.098 398.518 247.098C397.702 247.098 397.062 247.498 396.566 248.122V253.658H395.126ZM404.878 244.106C404.286 244.106 403.838 243.642 403.838 243.05C403.838 242.442 404.286 241.978 404.878 241.978C405.486 241.978 405.934 242.442 405.934 243.05C405.934 243.642 405.486 244.106 404.878 244.106ZM404.174 253.658V245.978H405.614V253.658H404.174ZM408.173 253.658V245.978H409.581V246.714C410.109 246.17 410.877 245.722 411.901 245.722C413.373 245.722 414.797 246.714 414.797 248.586V253.658H413.357V248.954C413.357 247.786 412.525 247.098 411.565 247.098C410.749 247.098 410.109 247.498 409.613 248.122V253.658H408.173ZM420.245 257.114C418.901 257.114 417.717 256.618 417.045 256.186V254.682C418.101 255.418 419.333 255.77 420.245 255.77C421.861 255.77 422.757 255.066 422.757 253.466V252.474C422.245 253.05 421.365 253.53 420.165 253.53C418.149 253.53 416.565 252.042 416.565 249.626C416.565 247.21 418.149 245.722 420.165 245.722C421.365 245.722 422.245 246.202 422.757 246.778V245.978H424.197V253.466C424.197 255.37 423.141 257.114 420.245 257.114ZM420.421 252.17C421.429 252.17 422.293 251.562 422.757 250.906V248.346C422.325 247.69 421.445 247.082 420.421 247.082C419.205 247.082 418.085 247.946 418.085 249.626C418.085 251.466 419.205 252.17 420.421 252.17ZM435.494 247.402C437.382 247.818 438.406 248.97 438.406 250.618C438.406 252.314 437.094 253.898 434.662 253.898C432.95 253.898 431.718 253.37 430.886 252.922V251.418C431.83 251.962 433.27 252.506 434.662 252.506C436.23 252.506 436.838 251.674 436.838 250.618C436.838 249.818 436.278 249.066 435.142 248.826L433.526 248.474C431.846 248.106 430.806 247.146 430.806 245.386C430.806 243.674 432.214 242.218 434.758 242.218C436.054 242.218 436.998 242.522 437.83 242.874V244.41C436.886 243.93 435.798 243.594 434.758 243.594C433.286 243.594 432.342 244.282 432.342 245.386C432.342 246.266 432.838 246.826 433.798 247.034L435.494 247.402ZM440.33 256.682V245.978H441.77V246.778C442.33 246.202 443.082 245.722 444.282 245.722C446.538 245.722 447.962 247.53 447.962 249.786C447.962 252.074 446.538 253.898 444.282 253.898C443.082 253.898 442.33 253.402 441.77 252.826V256.682H440.33ZM444.026 252.538C445.498 252.538 446.442 251.498 446.442 249.786C446.442 248.106 445.498 247.082 444.026 247.082C443.002 247.082 442.234 247.69 441.77 248.346V251.258C442.234 251.914 443.002 252.538 444.026 252.538ZM453.188 253.898C451.044 253.898 449.236 252.506 449.236 249.786C449.236 247.322 450.98 245.722 453.012 245.722C455.396 245.722 456.772 247.45 456.772 249.866C456.772 250.058 456.756 250.282 456.74 250.378H450.788C450.852 251.658 451.892 252.57 453.188 252.57C454.436 252.57 455.364 252.218 456.404 251.402V252.826C455.748 253.338 454.756 253.898 453.188 253.898ZM450.836 249.13H455.204C455.172 247.914 454.404 247.05 453.012 247.05C451.748 247.05 450.9 248.026 450.836 249.13ZM462.001 253.898C459.857 253.898 458.049 252.506 458.049 249.786C458.049 247.322 459.793 245.722 461.825 245.722C464.209 245.722 465.585 247.45 465.585 249.866C465.585 250.058 465.569 250.282 465.553 250.378H459.601C459.665 251.658 460.705 252.57 462.001 252.57C463.249 252.57 464.177 252.218 465.217 251.402V252.826C464.561 253.338 463.569 253.898 462.001 253.898ZM459.649 249.13H464.017C463.985 247.914 463.217 247.05 461.825 247.05C460.561 247.05 459.713 248.026 459.649 249.13ZM473.053 242.058H474.493V253.658H473.053V252.826C472.493 253.402 471.741 253.898 470.541 253.898C468.285 253.898 466.861 252.074 466.861 249.786C466.861 247.53 468.285 245.722 470.541 245.722C471.741 245.722 472.493 246.202 473.053 246.778V242.058ZM473.053 251.258V248.346C472.589 247.69 471.821 247.082 470.797 247.082C469.325 247.082 468.381 248.106 468.381 249.786C468.381 251.498 469.325 252.538 470.797 252.538C471.821 252.538 472.589 251.914 473.053 251.258ZM477.992 253.738C477.368 253.738 476.888 253.258 476.888 252.634C476.888 252.01 477.368 251.514 477.992 251.514C478.616 251.514 479.112 252.01 479.112 252.634C479.112 253.258 478.616 253.738 477.992 253.738Z" fill="black"/>
<path d="M202.496 186.258L226.163 147.687H178.83L202.496 186.258Z" fill="black"/>
<path d="M240.653 134.829L264.319 173.401H216.986L240.653 134.829Z" fill="black"/>
<path d="M278.809 186.258L302.475 147.687H255.142L278.809 186.258Z" fill="black"/>
<path d="M316.965 134.829L340.632 173.401H293.298L316.965 134.829Z" fill="black"/>
</g>
<defs>
<filter id="filter0_f_7_362" x="261.636" y="-459.456" width="798.393" height="800" filterUnits="userSpaceOnUse" color-interpolation-filters="sRGB">
<feFlood flood-opacity="0" result="BackgroundImageFix"/>
<feBlend mode="normal" in="SourceGraphic" in2="BackgroundImageFix" result="shape"/>
<feGaussianBlur stdDeviation="120" result="effect1_foregroundBlur_7_362"/>
</filter>
<filter id="filter1_f_7_362" x="-375.151" y="-186.456" width="798.393" height="800" filterUnits="userSpaceOnUse" color-interpolation-filters="sRGB">
<feFlood flood-opacity="0" result="BackgroundImageFix"/>
<feBlend mode="normal" in="SourceGraphic" in2="BackgroundImageFix" result="shape"/>
<feGaussianBlur stdDeviation="120" result="effect1_foregroundBlur_7_362"/>
</filter>
<filter id="filter2_f_7_362" x="261.636" y="80.5438" width="798.393" height="800" filterUnits="userSpaceOnUse" color-interpolation-filters="sRGB">
<feFlood flood-opacity="0" result="BackgroundImageFix"/>
<feBlend mode="normal" in="SourceGraphic" in2="BackgroundImageFix" result="shape"/>
<feGaussianBlur stdDeviation="120" result="effect1_foregroundBlur_7_362"/>
</filter>
<filter id="filter3_f_7_362" x="-375.151" y="13.5438" width="798.393" height="800" filterUnits="userSpaceOnUse" color-interpolation-filters="sRGB">
<feFlood flood-opacity="0" result="BackgroundImageFix"/>
<feBlend mode="normal" in="SourceGraphic" in2="BackgroundImageFix" result="shape"/>
<feGaussianBlur stdDeviation="120" result="effect1_foregroundBlur_7_362"/>
</filter>
<filter id="filter4_f_7_362" x="261.636" y="-459.456" width="798.393" height="800" filterUnits="userSpaceOnUse" color-interpolation-filters="sRGB">
<feFlood flood-opacity="0" result="BackgroundImageFix"/>
<feBlend mode="normal" in="SourceGraphic" in2="BackgroundImageFix" result="shape"/>
<feGaussianBlur stdDeviation="120" result="effect1_foregroundBlur_7_362"/>
</filter>
<filter id="filter5_f_7_362" x="-375.151" y="-186.456" width="798.393" height="800" filterUnits="userSpaceOnUse" color-interpolation-filters="sRGB">
<feFlood flood-opacity="0" result="BackgroundImageFix"/>
<feBlend mode="normal" in="SourceGraphic" in2="BackgroundImageFix" result="shape"/>
<feGaussianBlur stdDeviation="120" result="effect1_foregroundBlur_7_362"/>
</filter>
<filter id="filter6_f_7_362" x="261.636" y="80.5438" width="798.393" height="800" filterUnits="userSpaceOnUse" color-interpolation-filters="sRGB">
<feFlood flood-opacity="0" result="BackgroundImageFix"/>
<feBlend mode="normal" in="SourceGraphic" in2="BackgroundImageFix" result="shape"/>
<feGaussianBlur stdDeviation="120" result="effect1_foregroundBlur_7_362"/>
</filter>
<filter id="filter7_f_7_362" x="-375.151" y="13.5438" width="798.393" height="800" filterUnits="userSpaceOnUse" color-interpolation-filters="sRGB">
<feFlood flood-opacity="0" result="BackgroundImageFix"/>
<feBlend mode="normal" in="SourceGraphic" in2="BackgroundImageFix" result="shape"/>
<feGaussianBlur stdDeviation="120" result="effect1_foregroundBlur_7_362"/>
</filter>
<radialGradient id="paint0_radial_7_362" cx="0" cy="0" r="1" gradientUnits="userSpaceOnUse" gradientTransform="translate(nan nan) rotate(nan) scale(nan nan)">
<stop offset="0.348958" stop-color="#84FFD3"/>
<stop offset="0.880208" stop-color="#18E299" stop-opacity="0"/>
</radialGradient>
<radialGradient id="paint1_radial_7_362" cx="0" cy="0" r="1" gradientUnits="userSpaceOnUse" gradientTransform="translate(nan nan) rotate(nan) scale(nan nan)">
<stop offset="0.348958" stop-color="#84FFD3"/>
<stop offset="0.880208" stop-color="#18E299" stop-opacity="0"/>
</radialGradient>
<radialGradient id="paint2_radial_7_362" cx="0" cy="0" r="1" gradientUnits="userSpaceOnUse" gradientTransform="translate(nan nan) rotate(nan) scale(nan nan)">
<stop offset="0.348958" stop-color="#84FFD3"/>
<stop offset="0.880208" stop-color="#18E299" stop-opacity="0"/>
</radialGradient>
<radialGradient id="paint3_radial_7_362" cx="0" cy="0" r="1" gradientUnits="userSpaceOnUse" gradientTransform="translate(nan nan) rotate(nan) scale(nan nan)">
<stop offset="0.348958" stop-color="#84FFD3"/>
<stop offset="0.880208" stop-color="#18E299" stop-opacity="0"/>
</radialGradient>
<radialGradient id="paint4_radial_7_362" cx="0" cy="0" r="1" gradientUnits="userSpaceOnUse" gradientTransform="translate(nan nan) rotate(nan) scale(nan nan)">
<stop offset="0.348958" stop-color="#84FFD3"/>
<stop offset="0.880208" stop-color="#18E299" stop-opacity="0"/>
</radialGradient>
<radialGradient id="paint5_radial_7_362" cx="0" cy="0" r="1" gradientUnits="userSpaceOnUse" gradientTransform="translate(nan nan) rotate(nan) scale(nan nan)">
<stop offset="0.348958" stop-color="#84FFD3"/>
<stop offset="0.880208" stop-color="#18E299" stop-opacity="0"/>
</radialGradient>
<radialGradient id="paint6_radial_7_362" cx="0" cy="0" r="1" gradientUnits="userSpaceOnUse" gradientTransform="translate(nan nan) rotate(nan) scale(nan nan)">
<stop offset="0.348958" stop-color="#84FFD3"/>
<stop offset="0.880208" stop-color="#18E299" stop-opacity="0"/>
</radialGradient>
<radialGradient id="paint7_radial_7_362" cx="0" cy="0" r="1" gradientUnits="userSpaceOnUse" gradientTransform="translate(nan nan) rotate(nan) scale(nan nan)">
<stop offset="0.348958" stop-color="#84FFD3"/>
<stop offset="0.880208" stop-color="#18E299" stop-opacity="0"/>
</radialGradient>
<linearGradient id="paint8_linear_7_362" x1="nan" y1="nan" x2="nan" y2="nan" gradientUnits="userSpaceOnUse">
<stop stop-color="white" stop-opacity="0.1"/>
<stop offset="0.5" stop-color="white"/>
<stop offset="1" stop-color="white" stop-opacity="0.1"/>
</linearGradient>
<linearGradient id="paint9_linear_7_362" x1="512.581" y1="-0.456177" x2="190.585" y2="319.923" gradientUnits="userSpaceOnUse">
<stop stop-color="white" stop-opacity="0.1"/>
<stop offset="0.5" stop-color="white"/>
<stop offset="1" stop-color="white" stop-opacity="0.1"/>
</linearGradient>
<linearGradient id="paint10_linear_7_362" x1="512.581" y1="321.544" x2="190.585" y2="1.16461" gradientUnits="userSpaceOnUse">
<stop stop-color="white" stop-opacity="0.1"/>
<stop offset="0.5" stop-color="white"/>
<stop offset="1" stop-color="white" stop-opacity="0.1"/>
</linearGradient>
<linearGradient id="paint11_linear_7_362" x1="4.14622" y1="320.544" x2="712.397" y2="29.141" gradientUnits="userSpaceOnUse">
<stop stop-color="#18E299" stop-opacity="0.09"/>
<stop offset="0.729167" stop-color="#0D9373" stop-opacity="0.08"/>
</linearGradient>
<radialGradient id="paint12_radial_7_362" cx="0" cy="0" r="1" gradientUnits="userSpaceOnUse" gradientTransform="translate(nan nan) rotate(nan) scale(nan nan)">
<stop offset="0.348958" stop-color="#84FFD3"/>
<stop offset="0.880208" stop-color="#18E299" stop-opacity="0"/>
</radialGradient>
<radialGradient id="paint13_radial_7_362" cx="0" cy="0" r="1" gradientUnits="userSpaceOnUse" gradientTransform="translate(nan nan) rotate(nan) scale(nan nan)">
<stop offset="0.348958" stop-color="#84FFD3"/>
<stop offset="0.880208" stop-color="#18E299" stop-opacity="0"/>
</radialGradient>
<radialGradient id="paint14_radial_7_362" cx="0" cy="0" r="1" gradientUnits="userSpaceOnUse" gradientTransform="translate(nan nan) rotate(nan) scale(nan nan)">
<stop offset="0.348958" stop-color="#84FFD3"/>
<stop offset="0.880208" stop-color="#18E299" stop-opacity="0"/>
</radialGradient>
<radialGradient id="paint15_radial_7_362" cx="0" cy="0" r="1" gradientUnits="userSpaceOnUse" gradientTransform="translate(nan nan) rotate(nan) scale(nan nan)">
<stop offset="0.348958" stop-color="#84FFD3"/>
<stop offset="0.880208" stop-color="#18E299" stop-opacity="0"/>
</radialGradient>
<radialGradient id="paint16_radial_7_362" cx="0" cy="0" r="1" gradientUnits="userSpaceOnUse" gradientTransform="translate(nan nan) rotate(nan) scale(nan nan)">
<stop offset="0.348958" stop-color="#84FFD3"/>
<stop offset="0.880208" stop-color="#18E299" stop-opacity="0"/>
</radialGradient>
<radialGradient id="paint17_radial_7_362" cx="0" cy="0" r="1" gradientUnits="userSpaceOnUse" gradientTransform="translate(nan nan) rotate(nan) scale(nan nan)">
<stop offset="0.348958" stop-color="#84FFD3"/>
<stop offset="0.880208" stop-color="#18E299" stop-opacity="0"/>
</radialGradient>
<radialGradient id="paint18_radial_7_362" cx="0" cy="0" r="1" gradientUnits="userSpaceOnUse" gradientTransform="translate(nan nan) rotate(nan) scale(nan nan)">
<stop offset="0.348958" stop-color="#84FFD3"/>
<stop offset="0.880208" stop-color="#18E299" stop-opacity="0"/>
</radialGradient>
<radialGradient id="paint19_radial_7_362" cx="0" cy="0" r="1" gradientUnits="userSpaceOnUse" gradientTransform="translate(nan nan) rotate(nan) scale(nan nan)">
<stop offset="0.348958" stop-color="#84FFD3"/>
<stop offset="0.880208" stop-color="#18E299" stop-opacity="0"/>
</radialGradient>
<linearGradient id="paint20_linear_7_362" x1="nan" y1="nan" x2="nan" y2="nan" gradientUnits="userSpaceOnUse">
<stop stop-color="white" stop-opacity="0.1"/>
<stop offset="0.5" stop-color="white"/>
<stop offset="1" stop-color="white" stop-opacity="0.1"/>
</linearGradient>
<linearGradient id="paint21_linear_7_362" x1="512.581" y1="-0.456177" x2="190.585" y2="319.923" gradientUnits="userSpaceOnUse">
<stop stop-color="white" stop-opacity="0.1"/>
<stop offset="0.5" stop-color="white"/>
<stop offset="1" stop-color="white" stop-opacity="0.1"/>
</linearGradient>
<linearGradient id="paint22_linear_7_362" x1="512.581" y1="321.544" x2="190.585" y2="1.16461" gradientUnits="userSpaceOnUse">
<stop stop-color="white" stop-opacity="0.1"/>
<stop offset="0.5" stop-color="white"/>
<stop offset="1" stop-color="white" stop-opacity="0.1"/>
</linearGradient>
<clipPath id="clip0_7_362">
<rect width="700" height="320" fill="white" transform="translate(0.631577 0.543823)"/>
</clipPath>
</defs>
</svg>
