<svg width="697" height="320" viewBox="0 0 697 320" fill="none" xmlns="http://www.w3.org/2000/svg">
<mask id="mask0_2_233" style="mask-type:luminance" maskUnits="userSpaceOnUse" x="0" y="0" width="701" height="320">
<path d="M684.515 0H16.5146C7.67809 0 0.514648 7.16344 0.514648 16V304C0.514648 312.837 7.67809 320 16.5146 320H684.515C693.351 320 700.515 312.837 700.515 304V16C700.515 7.16344 693.351 0 684.515 0Z" fill="white"/>
</mask>
<g mask="url(#mask0_2_233)">
<path d="M684.515 0H16.5146C7.67809 0 0.514648 7.16344 0.514648 16V304C0.514648 312.837 7.67809 320 16.5146 320H684.515C693.351 320 700.515 312.837 700.515 304V16C700.515 7.16344 693.351 0 684.515 0Z" fill="url(#paint0_linear_2_233)"/>
<g opacity="0.8" filter="url(#filter0_f_2_233)">
<path d="M660.515 100C748.88 100 820.515 28.3656 820.515 -60C820.515 -148.366 748.88 -220 660.515 -220C572.149 -220 500.515 -148.366 500.515 -60C500.515 28.3656 572.149 100 660.515 100Z" fill="#18E244" fill-opacity="0.4"/>
</g>
<g opacity="0.8" filter="url(#filter1_f_2_233)">
<path d="M20.5146 373C108.88 373 180.515 301.366 180.515 213C180.515 124.634 108.88 53 20.5146 53C-67.8509 53 -139.485 124.634 -139.485 213C-139.485 301.366 -67.8509 373 20.5146 373Z" fill="#18CAE2" fill-opacity="0.33"/>
</g>
<g opacity="0.8" filter="url(#filter2_f_2_233)">
</g>
<g opacity="0.8" filter="url(#filter3_f_2_233)">
<path d="M20.5146 573C108.88 573 180.515 501.366 180.515 413C180.515 324.634 108.88 253 20.5146 253C-67.8509 253 -139.485 324.634 -139.485 413C-139.485 501.366 -67.8509 573 20.5146 573Z" fill="#4018E2" fill-opacity="0.22"/>
</g>
<path opacity="0.2" d="M0.514648 50H700.515" stroke="url(#paint1_radial_2_233)" stroke-dasharray="4 4"/>
<path opacity="0.1" d="M0.514648 82H700.515" stroke="url(#paint2_radial_2_233)" stroke-dasharray="4 4"/>
<path opacity="0.2" d="M239.515 0V320" stroke="url(#paint3_radial_2_233)" stroke-dasharray="4 4"/>
<path opacity="0.1" d="M271.515 0V320" stroke="url(#paint4_radial_2_233)" stroke-dasharray="4 4"/>
<path opacity="0.2" d="M461.515 0V320" stroke="url(#paint5_radial_2_233)" stroke-dasharray="4 4"/>
<path opacity="0.1" d="M429.515 0V320" stroke="url(#paint6_radial_2_233)" stroke-dasharray="4 4"/>
<path opacity="0.2" d="M0.514648 271H700.515" stroke="url(#paint7_radial_2_233)" stroke-dasharray="4 4"/>
<path opacity="0.1" d="M0.514648 239H700.515" stroke="url(#paint8_radial_2_233)" stroke-dasharray="4 4"/>
<g style="mix-blend-mode:overlay" opacity="0.1">
<path d="M0.514648 160H700.515" stroke="url(#paint9_linear_2_233)"/>
</g>
<g style="mix-blend-mode:overlay" opacity="0.2">
<path d="M511.515 -1L189.515 321" stroke="url(#paint10_linear_2_233)"/>
</g>
<g style="mix-blend-mode:overlay" opacity="0.2">
<path d="M511.515 321L189.515 -1" stroke="url(#paint11_linear_2_233)"/>
</g>
<g style="mix-blend-mode:overlay" opacity="0.1">
<path d="M350.515 271C411.818 271 461.515 221.304 461.515 160C461.515 98.6964 411.818 49 350.515 49C289.211 49 239.515 98.6964 239.515 160C239.515 221.304 289.211 271 350.515 271Z" stroke="white"/>
</g>
<g style="mix-blend-mode:overlay" opacity="0.1">
<path d="M350.515 239C394.145 239 429.515 203.63 429.515 160C429.515 116.37 394.145 81 350.515 81C306.884 81 271.515 116.37 271.515 160C271.515 203.63 306.884 239 350.515 239Z" stroke="white"/>
</g>
</g>
<path d="M357 169.44V164.192L374.6 143.968H357.256V138.72H382.024V143.776L364.424 164H382.344V169.44H357Z" fill="white" fill-opacity="0.9"/>
<path d="M391.085 182.304L399.086 166.048L385.517 138.72H392.174L402.094 159.904L411.63 138.72H418.414L397.869 182.304H391.085Z" fill="white" fill-opacity="0.9"/>
<path d="M458.361 137.696C464.249 137.696 469.753 141.664 469.753 149.152V169.44H463.993V150.624C463.993 145.952 461.305 143.2 457.465 143.2C454.265 143.2 451.705 144.672 449.721 147.168C449.785 147.808 449.849 148.448 449.849 149.152V169.44H444.153V150.624C444.153 145.952 441.593 143.2 437.753 143.2C434.489 143.2 431.929 144.8 429.945 147.296V169.44H424.185V138.72H429.817V141.664C431.929 139.488 435.001 137.696 439.097 137.696C442.617 137.696 445.817 139.104 447.737 141.92C449.465 140.256 452.857 137.696 458.361 137.696Z" fill="white" fill-opacity="0.9"/>
<path d="M492.62 170.4C484.044 170.4 476.812 164.832 476.812 153.952C476.812 144.096 483.789 137.696 491.917 137.696C501.453 137.696 506.956 144.608 506.956 154.272C506.956 155.04 506.893 155.936 506.829 156.32H483.021C483.276 161.44 487.436 165.088 492.62 165.088C497.612 165.088 501.324 163.68 505.484 160.416V166.112C502.86 168.16 498.892 170.4 492.62 170.4ZM483.213 151.328H500.684C500.556 146.464 497.485 143.008 491.917 143.008C486.861 143.008 483.469 146.912 483.213 151.328Z" fill="white" fill-opacity="0.9"/>
<path d="M222.416 253.354C219.488 253.354 216.72 251.306 216.72 247.514C216.72 243.722 219.488 241.674 222.416 241.674C225.344 241.674 228.112 243.722 228.112 247.514C228.112 251.306 225.344 253.354 222.416 253.354ZM222.416 251.914C224.528 251.914 226.544 250.41 226.544 247.514C226.544 244.634 224.528 243.114 222.416 243.114C220.304 243.114 218.288 244.634 218.288 247.514C218.288 250.41 220.304 251.914 222.416 251.914ZM230.108 253.114V245.434H231.516V246.17C232.044 245.626 232.812 245.178 233.836 245.178C235.308 245.178 236.732 246.17 236.732 248.042V253.114H235.292V248.41C235.292 247.242 234.46 246.554 233.5 246.554C232.684 246.554 232.044 246.954 231.548 247.578V253.114H230.108ZM243.091 245.178C245.347 245.178 246.771 246.986 246.771 249.242C246.771 251.53 245.347 253.354 243.091 253.354C241.891 253.354 241.139 252.858 240.579 252.282V253.114H239.139V241.514H240.579V246.234C241.139 245.658 241.891 245.178 243.091 245.178ZM242.835 251.994C244.307 251.994 245.251 250.954 245.251 249.242C245.251 247.562 244.307 246.538 242.835 246.538C241.811 246.538 241.043 247.146 240.579 247.802V250.714C241.043 251.37 241.811 251.994 242.835 251.994ZM252.094 253.354C249.758 253.354 248.046 251.61 248.046 249.258C248.046 246.922 249.758 245.178 252.094 245.178C254.43 245.178 256.142 246.922 256.142 249.258C256.142 251.61 254.43 253.354 252.094 253.354ZM252.094 251.994C253.406 251.994 254.622 251.05 254.622 249.258C254.622 247.482 253.406 246.538 252.094 246.538C250.782 246.538 249.566 247.482 249.566 249.258C249.566 251.05 250.782 251.994 252.094 251.994ZM260.541 253.354C258.813 253.354 257.581 252.378 257.581 250.666C257.581 249.082 258.973 248.17 260.541 248.17C261.405 248.17 262.221 248.378 262.717 248.65V247.834C262.717 247.082 262.141 246.458 260.957 246.458C259.837 246.458 258.733 246.89 258.029 247.338V245.882C258.861 245.466 259.805 245.178 260.957 245.178C263.245 245.178 264.157 246.49 264.157 247.994V253.114H262.765V252.49C262.301 252.938 261.517 253.354 260.541 253.354ZM260.797 252.122C261.709 252.122 262.429 251.642 262.717 251.354V249.946C262.429 249.722 261.677 249.37 260.797 249.37C259.821 249.37 259.085 249.834 259.085 250.666C259.085 251.562 259.821 252.122 260.797 252.122ZM266.405 253.114V245.434H267.813V246.762C268.213 245.738 269.157 245.178 270.165 245.178C270.405 245.178 270.581 245.21 270.693 245.226V246.826C270.469 246.794 270.213 246.778 270.005 246.778C268.741 246.778 268.053 247.61 267.845 248.346V253.114H266.405ZM277.77 241.514H279.21V253.114H277.77V252.282C277.21 252.858 276.458 253.354 275.258 253.354C273.002 253.354 271.578 251.53 271.578 249.242C271.578 246.986 273.002 245.178 275.258 245.178C276.458 245.178 277.21 245.658 277.77 246.234V241.514ZM277.77 250.714V247.802C277.306 247.146 276.538 246.538 275.514 246.538C274.042 246.538 273.098 247.562 273.098 249.242C273.098 250.954 274.042 251.994 275.514 251.994C276.538 251.994 277.306 251.37 277.77 250.714ZM282.484 243.562C281.892 243.562 281.444 243.098 281.444 242.506C281.444 241.898 281.892 241.434 282.484 241.434C283.092 241.434 283.54 241.898 283.54 242.506C283.54 243.098 283.092 243.562 282.484 243.562ZM281.78 253.114V245.434H283.22V253.114H281.78ZM285.78 253.114V245.434H287.188V246.17C287.716 245.626 288.484 245.178 289.508 245.178C290.98 245.178 292.404 246.17 292.404 248.042V253.114H290.964V248.41C290.964 247.242 290.132 246.554 289.172 246.554C288.356 246.554 287.716 246.954 287.22 247.578V253.114H285.78ZM297.851 256.57C296.507 256.57 295.323 256.074 294.651 255.642V254.138C295.707 254.874 296.939 255.226 297.851 255.226C299.467 255.226 300.363 254.522 300.363 252.922V251.93C299.851 252.506 298.971 252.986 297.771 252.986C295.755 252.986 294.171 251.498 294.171 249.082C294.171 246.666 295.755 245.178 297.771 245.178C298.971 245.178 299.851 245.658 300.363 246.234V245.434H301.803V252.922C301.803 254.826 300.747 256.57 297.851 256.57ZM298.027 251.626C299.035 251.626 299.899 251.018 300.363 250.362V247.802C299.931 247.146 299.051 246.538 298.027 246.538C296.811 246.538 295.691 247.402 295.691 249.082C295.691 250.922 296.811 251.626 298.027 251.626ZM311.213 253.354C309.485 253.354 308.253 252.378 308.253 250.666C308.253 249.082 309.645 248.17 311.213 248.17C312.077 248.17 312.893 248.378 313.389 248.65V247.834C313.389 247.082 312.813 246.458 311.629 246.458C310.509 246.458 309.405 246.89 308.701 247.338V245.882C309.533 245.466 310.477 245.178 311.629 245.178C313.917 245.178 314.829 246.49 314.829 247.994V253.114H313.437V252.49C312.973 252.938 312.189 253.354 311.213 253.354ZM311.469 252.122C312.381 252.122 313.101 251.642 313.389 251.354V249.946C313.101 249.722 312.349 249.37 311.469 249.37C310.493 249.37 309.757 249.834 309.757 250.666C309.757 251.562 310.493 252.122 311.469 252.122ZM319.669 253.354C318.357 253.354 317.509 252.618 317.509 251.226V246.714H316.117V245.434H317.605V243.162L318.949 242.362V245.434H320.821V246.714H318.949V251.002C318.949 251.706 319.333 252.058 320.101 252.058C320.357 252.058 320.645 252.01 320.821 251.946V253.194C320.693 253.242 320.181 253.354 319.669 253.354ZM330.106 253.354C328.794 253.354 327.946 252.618 327.946 251.226V246.714H326.554V245.434H328.042V243.162L329.386 242.362V245.434H331.258V246.714H329.386V251.002C329.386 251.706 329.77 252.058 330.538 252.058C330.794 252.058 331.082 252.01 331.258 251.946V253.194C331.13 253.242 330.618 253.354 330.106 253.354ZM333.264 253.114V241.514H334.704V246.138C335.232 245.61 336.016 245.178 337.024 245.178C338.496 245.178 339.952 246.17 339.952 248.042V253.114H338.512V248.41C338.512 247.242 337.648 246.554 336.688 246.554C335.872 246.554 335.2 246.954 334.704 247.578V253.114H333.264ZM345.67 253.354C343.526 253.354 341.718 251.962 341.718 249.242C341.718 246.778 343.462 245.178 345.494 245.178C347.878 245.178 349.254 246.906 349.254 249.322C349.254 249.514 349.238 249.738 349.222 249.834H343.27C343.334 251.114 344.374 252.026 345.67 252.026C346.918 252.026 347.846 251.674 348.886 250.858V252.282C348.23 252.794 347.238 253.354 345.67 253.354ZM343.318 248.586H347.686C347.654 247.37 346.886 246.506 345.494 246.506C344.23 246.506 343.382 247.482 343.318 248.586ZM356.018 253.114V241.914H357.522V251.674H362.882V253.114H356.018ZM365.203 243.562C364.611 243.562 364.163 243.098 364.163 242.506C364.163 241.898 364.611 241.434 365.203 241.434C365.811 241.434 366.259 241.898 366.259 242.506C366.259 243.098 365.811 243.562 365.203 243.562ZM364.499 253.114V245.434H365.939V253.114H364.499ZM371.539 256.57C370.195 256.57 369.011 256.074 368.339 255.642V254.138C369.395 254.874 370.627 255.226 371.539 255.226C373.155 255.226 374.051 254.522 374.051 252.922V251.93C373.539 252.506 372.659 252.986 371.459 252.986C369.443 252.986 367.859 251.498 367.859 249.082C367.859 246.666 369.443 245.178 371.459 245.178C372.659 245.178 373.539 245.658 374.051 246.234V245.434H375.491V252.922C375.491 254.826 374.435 256.57 371.539 256.57ZM371.715 251.626C372.723 251.626 373.587 251.018 374.051 250.362V247.802C373.619 247.146 372.739 246.538 371.715 246.538C370.499 246.538 369.379 247.402 369.379 249.082C369.379 250.922 370.499 251.626 371.715 251.626ZM377.733 253.114V241.514H379.173V246.138C379.701 245.61 380.485 245.178 381.493 245.178C382.965 245.178 384.421 246.17 384.421 248.042V253.114H382.981V248.41C382.981 247.242 382.117 246.554 381.157 246.554C380.341 246.554 379.669 246.954 379.173 247.578V253.114H377.733ZM389.419 253.354C388.107 253.354 387.259 252.618 387.259 251.226V246.714H385.867V245.434H387.355V243.162L388.699 242.362V245.434H390.571V246.714H388.699V251.002C388.699 251.706 389.083 252.058 389.851 252.058C390.107 252.058 390.395 252.01 390.571 251.946V253.194C390.443 253.242 389.931 253.354 389.419 253.354ZM392.577 253.114V245.434H393.985V246.17C394.513 245.626 395.281 245.178 396.305 245.178C397.777 245.178 399.201 246.17 399.201 248.042V253.114H397.761V248.41C397.761 247.242 396.929 246.554 395.969 246.554C395.153 246.554 394.513 246.954 394.017 247.578V253.114H392.577ZM402.328 243.562C401.736 243.562 401.288 243.098 401.288 242.506C401.288 241.898 401.736 241.434 402.328 241.434C402.936 241.434 403.384 241.898 403.384 242.506C403.384 243.098 402.936 243.562 402.328 243.562ZM401.624 253.114V245.434H403.064V253.114H401.624ZM405.624 253.114V245.434H407.032V246.17C407.56 245.626 408.328 245.178 409.352 245.178C410.824 245.178 412.248 246.17 412.248 248.042V253.114H410.808V248.41C410.808 247.242 409.976 246.554 409.016 246.554C408.2 246.554 407.56 246.954 407.064 247.578V253.114H405.624ZM417.695 256.57C416.351 256.57 415.167 256.074 414.495 255.642V254.138C415.551 254.874 416.783 255.226 417.695 255.226C419.311 255.226 420.207 254.522 420.207 252.922V251.93C419.695 252.506 418.815 252.986 417.615 252.986C415.599 252.986 414.015 251.498 414.015 249.082C414.015 246.666 415.599 245.178 417.615 245.178C418.815 245.178 419.695 245.658 420.207 246.234V245.434H421.647V252.922C421.647 254.826 420.591 256.57 417.695 256.57ZM417.871 251.626C418.879 251.626 419.743 251.018 420.207 250.362V247.802C419.775 247.146 418.895 246.538 417.871 246.538C416.655 246.538 415.535 247.402 415.535 249.082C415.535 250.922 416.655 251.626 417.871 251.626ZM432.945 246.858C434.833 247.274 435.857 248.426 435.857 250.074C435.857 251.77 434.545 253.354 432.113 253.354C430.401 253.354 429.169 252.826 428.337 252.378V250.874C429.281 251.418 430.721 251.962 432.113 251.962C433.681 251.962 434.289 251.13 434.289 250.074C434.289 249.274 433.729 248.522 432.593 248.282L430.977 247.93C429.297 247.562 428.257 246.602 428.257 244.842C428.257 243.13 429.665 241.674 432.209 241.674C433.505 241.674 434.449 241.978 435.281 242.33V243.866C434.337 243.386 433.249 243.05 432.209 243.05C430.737 243.05 429.793 243.738 429.793 244.842C429.793 245.722 430.289 246.282 431.249 246.49L432.945 246.858ZM437.78 256.138V245.434H439.22V246.234C439.78 245.658 440.532 245.178 441.732 245.178C443.988 245.178 445.412 246.986 445.412 249.242C445.412 251.53 443.988 253.354 441.732 253.354C440.532 253.354 439.78 252.858 439.22 252.282V256.138H437.78ZM441.476 251.994C442.948 251.994 443.892 250.954 443.892 249.242C443.892 247.562 442.948 246.538 441.476 246.538C440.452 246.538 439.684 247.146 439.22 247.802V250.714C439.684 251.37 440.452 251.994 441.476 251.994ZM450.639 253.354C448.495 253.354 446.687 251.962 446.687 249.242C446.687 246.778 448.431 245.178 450.463 245.178C452.847 245.178 454.223 246.906 454.223 249.322C454.223 249.514 454.207 249.738 454.191 249.834H448.239C448.303 251.114 449.343 252.026 450.639 252.026C451.887 252.026 452.815 251.674 453.855 250.858V252.282C453.199 252.794 452.207 253.354 450.639 253.354ZM448.287 248.586H452.655C452.623 247.37 451.855 246.506 450.463 246.506C449.199 246.506 448.351 247.482 448.287 248.586ZM459.451 253.354C457.307 253.354 455.499 251.962 455.499 249.242C455.499 246.778 457.243 245.178 459.275 245.178C461.659 245.178 463.035 246.906 463.035 249.322C463.035 249.514 463.019 249.738 463.003 249.834H457.051C457.115 251.114 458.155 252.026 459.451 252.026C460.699 252.026 461.627 251.674 462.667 250.858V252.282C462.011 252.794 461.019 253.354 459.451 253.354ZM457.099 248.586H461.467C461.435 247.37 460.667 246.506 459.275 246.506C458.011 246.506 457.163 247.482 457.099 248.586ZM470.504 241.514H471.944V253.114H470.504V252.282C469.944 252.858 469.192 253.354 467.992 253.354C465.736 253.354 464.312 251.53 464.312 249.242C464.312 246.986 465.736 245.178 467.992 245.178C469.192 245.178 469.944 245.658 470.504 246.234V241.514ZM470.504 250.714V247.802C470.04 247.146 469.272 246.538 468.248 246.538C466.776 246.538 465.832 247.562 465.832 249.242C465.832 250.954 466.776 251.994 468.248 251.994C469.272 251.994 470.04 251.37 470.504 250.714ZM475.443 253.194C474.819 253.194 474.339 252.714 474.339 252.09C474.339 251.466 474.819 250.97 475.443 250.97C476.067 250.97 476.563 251.466 476.563 252.09C476.563 252.714 476.067 253.194 475.443 253.194Z" fill="white"/>
<path d="M199.2 185.715L222.866 147.143H175.533L199.2 185.715Z" fill="white"/>
<path d="M237.356 134.285L261.022 172.857H213.689L237.356 134.285Z" fill="white"/>
<path d="M275.512 185.715L299.179 147.143H251.845L275.512 185.715Z" fill="white"/>
<path d="M313.668 134.285L337.335 172.857H290.001L313.668 134.285Z" fill="white"/>
<defs>
<filter id="filter0_f_2_233" x="260.515" y="-460" width="800" height="800" filterUnits="userSpaceOnUse" color-interpolation-filters="sRGB">
<feFlood flood-opacity="0" result="BackgroundImageFix"/>
<feBlend mode="normal" in="SourceGraphic" in2="BackgroundImageFix" result="shape"/>
<feGaussianBlur stdDeviation="120" result="effect1_foregroundBlur_2_233"/>
</filter>
<filter id="filter1_f_2_233" x="-379.485" y="-187" width="800" height="800" filterUnits="userSpaceOnUse" color-interpolation-filters="sRGB">
<feFlood flood-opacity="0" result="BackgroundImageFix"/>
<feBlend mode="normal" in="SourceGraphic" in2="BackgroundImageFix" result="shape"/>
<feGaussianBlur stdDeviation="120" result="effect1_foregroundBlur_2_233"/>
</filter>
<filter id="filter2_f_2_233" x="260.515" y="80" width="800" height="800" filterUnits="userSpaceOnUse" color-interpolation-filters="sRGB">
<feFlood flood-opacity="0" result="BackgroundImageFix"/>
<feBlend mode="normal" in="SourceGraphic" in2="BackgroundImageFix" result="shape"/>
<feGaussianBlur stdDeviation="120" result="effect1_foregroundBlur_2_233"/>
</filter>
<filter id="filter3_f_2_233" x="-379.485" y="13" width="800" height="800" filterUnits="userSpaceOnUse" color-interpolation-filters="sRGB">
<feFlood flood-opacity="0" result="BackgroundImageFix"/>
<feBlend mode="normal" in="SourceGraphic" in2="BackgroundImageFix" result="shape"/>
<feGaussianBlur stdDeviation="120" result="effect1_foregroundBlur_2_233"/>
</filter>
<linearGradient id="paint0_linear_2_233" x1="0.514661" y1="320" x2="711.299" y2="26.0793" gradientUnits="userSpaceOnUse">
<stop stop-color="#18E299" stop-opacity="0.09"/>
<stop offset="0.729167" stop-color="#0D9373" stop-opacity="0.08"/>
</linearGradient>
<radialGradient id="paint1_radial_2_233" cx="0" cy="0" r="1" gradientUnits="userSpaceOnUse" gradientTransform="translate(nan nan) rotate(nan) scale(nan nan)">
<stop offset="0.348958" stop-color="#84FFD3"/>
<stop offset="0.880208" stop-color="#18E299" stop-opacity="0"/>
</radialGradient>
<radialGradient id="paint2_radial_2_233" cx="0" cy="0" r="1" gradientUnits="userSpaceOnUse" gradientTransform="translate(nan nan) rotate(nan) scale(nan nan)">
<stop offset="0.348958" stop-color="#84FFD3"/>
<stop offset="0.880208" stop-color="#18E299" stop-opacity="0"/>
</radialGradient>
<radialGradient id="paint3_radial_2_233" cx="0" cy="0" r="1" gradientUnits="userSpaceOnUse" gradientTransform="translate(nan nan) rotate(nan) scale(nan nan)">
<stop offset="0.348958" stop-color="#84FFD3"/>
<stop offset="0.880208" stop-color="#18E299" stop-opacity="0"/>
</radialGradient>
<radialGradient id="paint4_radial_2_233" cx="0" cy="0" r="1" gradientUnits="userSpaceOnUse" gradientTransform="translate(nan nan) rotate(nan) scale(nan nan)">
<stop offset="0.348958" stop-color="#84FFD3"/>
<stop offset="0.880208" stop-color="#18E299" stop-opacity="0"/>
</radialGradient>
<radialGradient id="paint5_radial_2_233" cx="0" cy="0" r="1" gradientUnits="userSpaceOnUse" gradientTransform="translate(nan nan) rotate(nan) scale(nan nan)">
<stop offset="0.348958" stop-color="#84FFD3"/>
<stop offset="0.880208" stop-color="#18E299" stop-opacity="0"/>
</radialGradient>
<radialGradient id="paint6_radial_2_233" cx="0" cy="0" r="1" gradientUnits="userSpaceOnUse" gradientTransform="translate(nan nan) rotate(nan) scale(nan nan)">
<stop offset="0.348958" stop-color="#84FFD3"/>
<stop offset="0.880208" stop-color="#18E299" stop-opacity="0"/>
</radialGradient>
<radialGradient id="paint7_radial_2_233" cx="0" cy="0" r="1" gradientUnits="userSpaceOnUse" gradientTransform="translate(nan nan) rotate(nan) scale(nan nan)">
<stop offset="0.348958" stop-color="#84FFD3"/>
<stop offset="0.880208" stop-color="#18E299" stop-opacity="0"/>
</radialGradient>
<radialGradient id="paint8_radial_2_233" cx="0" cy="0" r="1" gradientUnits="userSpaceOnUse" gradientTransform="translate(nan nan) rotate(nan) scale(nan nan)">
<stop offset="0.348958" stop-color="#84FFD3"/>
<stop offset="0.880208" stop-color="#18E299" stop-opacity="0"/>
</radialGradient>
<linearGradient id="paint9_linear_2_233" x1="nan" y1="nan" x2="nan" y2="nan" gradientUnits="userSpaceOnUse">
<stop stop-color="white" stop-opacity="0.1"/>
<stop offset="0.5" stop-color="white"/>
<stop offset="1" stop-color="white" stop-opacity="0.1"/>
</linearGradient>
<linearGradient id="paint10_linear_2_233" x1="511.515" y1="-1" x2="189.515" y2="321" gradientUnits="userSpaceOnUse">
<stop stop-color="white" stop-opacity="0.1"/>
<stop offset="0.5" stop-color="white"/>
<stop offset="1" stop-color="white" stop-opacity="0.1"/>
</linearGradient>
<linearGradient id="paint11_linear_2_233" x1="511.515" y1="321" x2="189.515" y2="-1" gradientUnits="userSpaceOnUse">
<stop stop-color="white" stop-opacity="0.1"/>
<stop offset="0.5" stop-color="white"/>
<stop offset="1" stop-color="white" stop-opacity="0.1"/>
</linearGradient>
</defs>
</svg>
