<svg width="700" height="320" viewBox="0 0 700 320" fill="none" xmlns="http://www.w3.org/2000/svg">
<g clip-path="url(#clip0_2_241)">
<path d="M360 169.44V164.192L377.6 143.968H360.256V138.72H385.024V143.776L367.424 164H385.344V169.44H360Z" fill="black" fill-opacity="0.9"/>
<path d="M394.085 182.304L402.086 166.048L388.517 138.72H395.174L405.094 159.904L414.63 138.72H421.414L400.869 182.304H394.085Z" fill="black" fill-opacity="0.9"/>
<path d="M461.361 137.696C467.249 137.696 472.753 141.664 472.753 149.152V169.44H466.993V150.624C466.993 145.952 464.305 143.2 460.465 143.2C457.265 143.2 454.705 144.672 452.721 147.168C452.785 147.808 452.849 148.448 452.849 149.152V169.44H447.153V150.624C447.153 145.952 444.593 143.2 440.753 143.2C437.489 143.2 434.929 144.8 432.945 147.296V169.44H427.185V138.72H432.817V141.664C434.929 139.488 438.001 137.696 442.097 137.696C445.617 137.696 448.817 139.104 450.737 141.92C452.465 140.256 455.857 137.696 461.361 137.696Z" fill="black" fill-opacity="0.9"/>
<path d="M495.62 170.4C487.044 170.4 479.812 164.832 479.812 153.952C479.812 144.096 486.789 137.696 494.917 137.696C504.453 137.696 509.956 144.608 509.956 154.272C509.956 155.04 509.893 155.936 509.829 156.32H486.021C486.276 161.44 490.436 165.088 495.62 165.088C500.612 165.088 504.324 163.68 508.484 160.416V166.112C505.86 168.16 501.892 170.4 495.62 170.4ZM486.213 151.328H503.684C503.556 146.464 500.485 143.008 494.917 143.008C489.861 143.008 486.469 146.912 486.213 151.328Z" fill="black" fill-opacity="0.9"/>
<mask id="mask0_2_241" style="mask-type:luminance" maskUnits="userSpaceOnUse" x="3" y="0" width="701" height="320">
<path d="M687.515 0H19.5147C10.6781 0 3.51466 7.16344 3.51466 16V304C3.51466 312.837 10.6781 320 19.5147 320H687.515C696.351 320 703.515 312.837 703.515 304V16C703.515 7.16344 696.351 0 687.515 0Z" fill="white"/>
</mask>
<g mask="url(#mask0_2_241)">
<path d="M687.515 0H19.5146C10.6781 0 3.51465 7.16344 3.51465 16V304C3.51465 312.837 10.6781 320 19.5146 320H687.515C696.351 320 703.515 312.837 703.515 304V16C703.515 7.16344 696.351 0 687.515 0Z" fill="url(#paint0_linear_2_241)"/>
<g opacity="0.8" filter="url(#filter0_f_2_241)">
<path d="M663.515 100C751.88 100 823.515 28.3656 823.515 -60C823.515 -148.366 751.88 -220 663.515 -220C575.149 -220 503.515 -148.366 503.515 -60C503.515 28.3656 575.149 100 663.515 100Z" fill="#18E244" fill-opacity="0.4"/>
</g>
<g opacity="0.8" filter="url(#filter1_f_2_241)">
<path d="M23.5146 373C111.88 373 183.515 301.366 183.515 213C183.515 124.634 111.88 53 23.5146 53C-64.8509 53 -136.485 124.634 -136.485 213C-136.485 301.366 -64.8509 373 23.5146 373Z" fill="#18CAE2" fill-opacity="0.33"/>
</g>
<g opacity="0.8" filter="url(#filter2_f_2_241)">
</g>
<g opacity="0.8" filter="url(#filter3_f_2_241)">
<path d="M23.5146 573C111.88 573 183.515 501.366 183.515 413C183.515 324.634 111.88 253 23.5146 253C-64.8509 253 -136.485 324.634 -136.485 413C-136.485 501.366 -64.8509 573 23.5146 573Z" fill="#4018E2" fill-opacity="0.22"/>
</g>
<path opacity="0.2" d="M3.51465 50H703.515" stroke="url(#paint1_radial_2_241)" stroke-dasharray="4 4"/>
<path opacity="0.1" d="M3.51465 82H703.515" stroke="url(#paint2_radial_2_241)" stroke-dasharray="4 4"/>
<path opacity="0.2" d="M242.515 0V320" stroke="url(#paint3_radial_2_241)" stroke-dasharray="4 4"/>
<path opacity="0.1" d="M274.515 0V320" stroke="url(#paint4_radial_2_241)" stroke-dasharray="4 4"/>
<path opacity="0.2" d="M464.515 0V320" stroke="url(#paint5_radial_2_241)" stroke-dasharray="4 4"/>
<path opacity="0.1" d="M432.515 0V320" stroke="url(#paint6_radial_2_241)" stroke-dasharray="4 4"/>
<path opacity="0.2" d="M3.51465 271H703.515" stroke="url(#paint7_radial_2_241)" stroke-dasharray="4 4"/>
<path opacity="0.1" d="M3.51465 239H703.515" stroke="url(#paint8_radial_2_241)" stroke-dasharray="4 4"/>
<g style="mix-blend-mode:overlay" opacity="0.1">
<path d="M3.51465 160H703.515" stroke="url(#paint9_linear_2_241)"/>
</g>
<g style="mix-blend-mode:overlay" opacity="0.2">
<path d="M514.515 -1L192.515 321" stroke="url(#paint10_linear_2_241)"/>
</g>
<g style="mix-blend-mode:overlay" opacity="0.2">
<path d="M514.515 321L192.515 -1" stroke="url(#paint11_linear_2_241)"/>
</g>
<g style="mix-blend-mode:overlay" opacity="0.1">
<path d="M353.515 271C414.818 271 464.515 221.304 464.515 160C464.515 98.6964 414.818 49 353.515 49C292.211 49 242.515 98.6964 242.515 160C242.515 221.304 292.211 271 353.515 271Z" stroke="white"/>
</g>
<g style="mix-blend-mode:overlay" opacity="0.1">
<path d="M353.515 239C397.145 239 432.515 203.63 432.515 160C432.515 116.37 397.145 81 353.515 81C309.884 81 274.515 116.37 274.515 160C274.515 203.63 309.884 239 353.515 239Z" stroke="white"/>
</g>
</g>
<path d="M225.416 253.354C222.488 253.354 219.72 251.306 219.72 247.514C219.72 243.722 222.488 241.674 225.416 241.674C228.344 241.674 231.112 243.722 231.112 247.514C231.112 251.306 228.344 253.354 225.416 253.354ZM225.416 251.914C227.528 251.914 229.544 250.41 229.544 247.514C229.544 244.634 227.528 243.114 225.416 243.114C223.304 243.114 221.288 244.634 221.288 247.514C221.288 250.41 223.304 251.914 225.416 251.914ZM233.108 253.114V245.434H234.516V246.17C235.044 245.626 235.812 245.178 236.836 245.178C238.308 245.178 239.732 246.17 239.732 248.042V253.114H238.292V248.41C238.292 247.242 237.46 246.554 236.5 246.554C235.684 246.554 235.044 246.954 234.548 247.578V253.114H233.108ZM246.091 245.178C248.347 245.178 249.771 246.986 249.771 249.242C249.771 251.53 248.347 253.354 246.091 253.354C244.891 253.354 244.139 252.858 243.579 252.282V253.114H242.139V241.514H243.579V246.234C244.139 245.658 244.891 245.178 246.091 245.178ZM245.835 251.994C247.307 251.994 248.251 250.954 248.251 249.242C248.251 247.562 247.307 246.538 245.835 246.538C244.811 246.538 244.043 247.146 243.579 247.802V250.714C244.043 251.37 244.811 251.994 245.835 251.994ZM255.094 253.354C252.758 253.354 251.046 251.61 251.046 249.258C251.046 246.922 252.758 245.178 255.094 245.178C257.43 245.178 259.142 246.922 259.142 249.258C259.142 251.61 257.43 253.354 255.094 253.354ZM255.094 251.994C256.406 251.994 257.622 251.05 257.622 249.258C257.622 247.482 256.406 246.538 255.094 246.538C253.782 246.538 252.566 247.482 252.566 249.258C252.566 251.05 253.782 251.994 255.094 251.994ZM263.541 253.354C261.813 253.354 260.581 252.378 260.581 250.666C260.581 249.082 261.973 248.17 263.541 248.17C264.405 248.17 265.221 248.378 265.717 248.65V247.834C265.717 247.082 265.141 246.458 263.957 246.458C262.837 246.458 261.733 246.89 261.029 247.338V245.882C261.861 245.466 262.805 245.178 263.957 245.178C266.245 245.178 267.157 246.49 267.157 247.994V253.114H265.765V252.49C265.301 252.938 264.517 253.354 263.541 253.354ZM263.797 252.122C264.709 252.122 265.429 251.642 265.717 251.354V249.946C265.429 249.722 264.677 249.37 263.797 249.37C262.821 249.37 262.085 249.834 262.085 250.666C262.085 251.562 262.821 252.122 263.797 252.122ZM269.405 253.114V245.434H270.813V246.762C271.213 245.738 272.157 245.178 273.165 245.178C273.405 245.178 273.581 245.21 273.693 245.226V246.826C273.469 246.794 273.213 246.778 273.005 246.778C271.741 246.778 271.053 247.61 270.845 248.346V253.114H269.405ZM280.77 241.514H282.21V253.114H280.77V252.282C280.21 252.858 279.458 253.354 278.258 253.354C276.002 253.354 274.578 251.53 274.578 249.242C274.578 246.986 276.002 245.178 278.258 245.178C279.458 245.178 280.21 245.658 280.77 246.234V241.514ZM280.77 250.714V247.802C280.306 247.146 279.538 246.538 278.514 246.538C277.042 246.538 276.098 247.562 276.098 249.242C276.098 250.954 277.042 251.994 278.514 251.994C279.538 251.994 280.306 251.37 280.77 250.714ZM285.484 243.562C284.892 243.562 284.444 243.098 284.444 242.506C284.444 241.898 284.892 241.434 285.484 241.434C286.092 241.434 286.54 241.898 286.54 242.506C286.54 243.098 286.092 243.562 285.484 243.562ZM284.78 253.114V245.434H286.22V253.114H284.78ZM288.78 253.114V245.434H290.188V246.17C290.716 245.626 291.484 245.178 292.508 245.178C293.98 245.178 295.404 246.17 295.404 248.042V253.114H293.964V248.41C293.964 247.242 293.132 246.554 292.172 246.554C291.356 246.554 290.716 246.954 290.22 247.578V253.114H288.78ZM300.851 256.57C299.507 256.57 298.323 256.074 297.651 255.642V254.138C298.707 254.874 299.939 255.226 300.851 255.226C302.467 255.226 303.363 254.522 303.363 252.922V251.93C302.851 252.506 301.971 252.986 300.771 252.986C298.755 252.986 297.171 251.498 297.171 249.082C297.171 246.666 298.755 245.178 300.771 245.178C301.971 245.178 302.851 245.658 303.363 246.234V245.434H304.803V252.922C304.803 254.826 303.747 256.57 300.851 256.57ZM301.027 251.626C302.035 251.626 302.899 251.018 303.363 250.362V247.802C302.931 247.146 302.051 246.538 301.027 246.538C299.811 246.538 298.691 247.402 298.691 249.082C298.691 250.922 299.811 251.626 301.027 251.626ZM314.213 253.354C312.485 253.354 311.253 252.378 311.253 250.666C311.253 249.082 312.645 248.17 314.213 248.17C315.077 248.17 315.893 248.378 316.389 248.65V247.834C316.389 247.082 315.813 246.458 314.629 246.458C313.509 246.458 312.405 246.89 311.701 247.338V245.882C312.533 245.466 313.477 245.178 314.629 245.178C316.917 245.178 317.829 246.49 317.829 247.994V253.114H316.437V252.49C315.973 252.938 315.189 253.354 314.213 253.354ZM314.469 252.122C315.381 252.122 316.101 251.642 316.389 251.354V249.946C316.101 249.722 315.349 249.37 314.469 249.37C313.493 249.37 312.757 249.834 312.757 250.666C312.757 251.562 313.493 252.122 314.469 252.122ZM322.669 253.354C321.357 253.354 320.509 252.618 320.509 251.226V246.714H319.117V245.434H320.605V243.162L321.949 242.362V245.434H323.821V246.714H321.949V251.002C321.949 251.706 322.333 252.058 323.101 252.058C323.357 252.058 323.645 252.01 323.821 251.946V253.194C323.693 253.242 323.181 253.354 322.669 253.354ZM333.106 253.354C331.794 253.354 330.946 252.618 330.946 251.226V246.714H329.554V245.434H331.042V243.162L332.386 242.362V245.434H334.258V246.714H332.386V251.002C332.386 251.706 332.77 252.058 333.538 252.058C333.794 252.058 334.082 252.01 334.258 251.946V253.194C334.13 253.242 333.618 253.354 333.106 253.354ZM336.264 253.114V241.514H337.704V246.138C338.232 245.61 339.016 245.178 340.024 245.178C341.496 245.178 342.952 246.17 342.952 248.042V253.114H341.512V248.41C341.512 247.242 340.648 246.554 339.688 246.554C338.872 246.554 338.2 246.954 337.704 247.578V253.114H336.264ZM348.67 253.354C346.526 253.354 344.718 251.962 344.718 249.242C344.718 246.778 346.462 245.178 348.494 245.178C350.878 245.178 352.254 246.906 352.254 249.322C352.254 249.514 352.238 249.738 352.222 249.834H346.27C346.334 251.114 347.374 252.026 348.67 252.026C349.918 252.026 350.846 251.674 351.886 250.858V252.282C351.23 252.794 350.238 253.354 348.67 253.354ZM346.318 248.586H350.686C350.654 247.37 349.886 246.506 348.494 246.506C347.23 246.506 346.382 247.482 346.318 248.586ZM359.018 253.114V241.914H360.522V251.674H365.882V253.114H359.018ZM368.203 243.562C367.611 243.562 367.163 243.098 367.163 242.506C367.163 241.898 367.611 241.434 368.203 241.434C368.811 241.434 369.259 241.898 369.259 242.506C369.259 243.098 368.811 243.562 368.203 243.562ZM367.499 253.114V245.434H368.939V253.114H367.499ZM374.539 256.57C373.195 256.57 372.011 256.074 371.339 255.642V254.138C372.395 254.874 373.627 255.226 374.539 255.226C376.155 255.226 377.051 254.522 377.051 252.922V251.93C376.539 252.506 375.659 252.986 374.459 252.986C372.443 252.986 370.859 251.498 370.859 249.082C370.859 246.666 372.443 245.178 374.459 245.178C375.659 245.178 376.539 245.658 377.051 246.234V245.434H378.491V252.922C378.491 254.826 377.435 256.57 374.539 256.57ZM374.715 251.626C375.723 251.626 376.587 251.018 377.051 250.362V247.802C376.619 247.146 375.739 246.538 374.715 246.538C373.499 246.538 372.379 247.402 372.379 249.082C372.379 250.922 373.499 251.626 374.715 251.626ZM380.733 253.114V241.514H382.173V246.138C382.701 245.61 383.485 245.178 384.493 245.178C385.965 245.178 387.421 246.17 387.421 248.042V253.114H385.981V248.41C385.981 247.242 385.117 246.554 384.157 246.554C383.341 246.554 382.669 246.954 382.173 247.578V253.114H380.733ZM392.419 253.354C391.107 253.354 390.259 252.618 390.259 251.226V246.714H388.867V245.434H390.355V243.162L391.699 242.362V245.434H393.571V246.714H391.699V251.002C391.699 251.706 392.083 252.058 392.851 252.058C393.107 252.058 393.395 252.01 393.571 251.946V253.194C393.443 253.242 392.931 253.354 392.419 253.354ZM395.577 253.114V245.434H396.985V246.17C397.513 245.626 398.281 245.178 399.305 245.178C400.777 245.178 402.201 246.17 402.201 248.042V253.114H400.761V248.41C400.761 247.242 399.929 246.554 398.969 246.554C398.153 246.554 397.513 246.954 397.017 247.578V253.114H395.577ZM405.328 243.562C404.736 243.562 404.288 243.098 404.288 242.506C404.288 241.898 404.736 241.434 405.328 241.434C405.936 241.434 406.384 241.898 406.384 242.506C406.384 243.098 405.936 243.562 405.328 243.562ZM404.624 253.114V245.434H406.064V253.114H404.624ZM408.624 253.114V245.434H410.032V246.17C410.56 245.626 411.328 245.178 412.352 245.178C413.824 245.178 415.248 246.17 415.248 248.042V253.114H413.808V248.41C413.808 247.242 412.976 246.554 412.016 246.554C411.2 246.554 410.56 246.954 410.064 247.578V253.114H408.624ZM420.695 256.57C419.351 256.57 418.167 256.074 417.495 255.642V254.138C418.551 254.874 419.783 255.226 420.695 255.226C422.311 255.226 423.207 254.522 423.207 252.922V251.93C422.695 252.506 421.815 252.986 420.615 252.986C418.599 252.986 417.015 251.498 417.015 249.082C417.015 246.666 418.599 245.178 420.615 245.178C421.815 245.178 422.695 245.658 423.207 246.234V245.434H424.647V252.922C424.647 254.826 423.591 256.57 420.695 256.57ZM420.871 251.626C421.879 251.626 422.743 251.018 423.207 250.362V247.802C422.775 247.146 421.895 246.538 420.871 246.538C419.655 246.538 418.535 247.402 418.535 249.082C418.535 250.922 419.655 251.626 420.871 251.626ZM435.945 246.858C437.833 247.274 438.857 248.426 438.857 250.074C438.857 251.77 437.545 253.354 435.113 253.354C433.401 253.354 432.169 252.826 431.337 252.378V250.874C432.281 251.418 433.721 251.962 435.113 251.962C436.681 251.962 437.289 251.13 437.289 250.074C437.289 249.274 436.729 248.522 435.593 248.282L433.977 247.93C432.297 247.562 431.257 246.602 431.257 244.842C431.257 243.13 432.665 241.674 435.209 241.674C436.505 241.674 437.449 241.978 438.281 242.33V243.866C437.337 243.386 436.249 243.05 435.209 243.05C433.737 243.05 432.793 243.738 432.793 244.842C432.793 245.722 433.289 246.282 434.249 246.49L435.945 246.858ZM440.78 256.138V245.434H442.22V246.234C442.78 245.658 443.532 245.178 444.732 245.178C446.988 245.178 448.412 246.986 448.412 249.242C448.412 251.53 446.988 253.354 444.732 253.354C443.532 253.354 442.78 252.858 442.22 252.282V256.138H440.78ZM444.476 251.994C445.948 251.994 446.892 250.954 446.892 249.242C446.892 247.562 445.948 246.538 444.476 246.538C443.452 246.538 442.684 247.146 442.22 247.802V250.714C442.684 251.37 443.452 251.994 444.476 251.994ZM453.639 253.354C451.495 253.354 449.687 251.962 449.687 249.242C449.687 246.778 451.431 245.178 453.463 245.178C455.847 245.178 457.223 246.906 457.223 249.322C457.223 249.514 457.207 249.738 457.191 249.834H451.239C451.303 251.114 452.343 252.026 453.639 252.026C454.887 252.026 455.815 251.674 456.855 250.858V252.282C456.199 252.794 455.207 253.354 453.639 253.354ZM451.287 248.586H455.655C455.623 247.37 454.855 246.506 453.463 246.506C452.199 246.506 451.351 247.482 451.287 248.586ZM462.451 253.354C460.307 253.354 458.499 251.962 458.499 249.242C458.499 246.778 460.243 245.178 462.275 245.178C464.659 245.178 466.035 246.906 466.035 249.322C466.035 249.514 466.019 249.738 466.003 249.834H460.051C460.115 251.114 461.155 252.026 462.451 252.026C463.699 252.026 464.627 251.674 465.667 250.858V252.282C465.011 252.794 464.019 253.354 462.451 253.354ZM460.099 248.586H464.467C464.435 247.37 463.667 246.506 462.275 246.506C461.011 246.506 460.163 247.482 460.099 248.586ZM473.504 241.514H474.944V253.114H473.504V252.282C472.944 252.858 472.192 253.354 470.992 253.354C468.736 253.354 467.312 251.53 467.312 249.242C467.312 246.986 468.736 245.178 470.992 245.178C472.192 245.178 472.944 245.658 473.504 246.234V241.514ZM473.504 250.714V247.802C473.04 247.146 472.272 246.538 471.248 246.538C469.776 246.538 468.832 247.562 468.832 249.242C468.832 250.954 469.776 251.994 471.248 251.994C472.272 251.994 473.04 251.37 473.504 250.714ZM478.443 253.194C477.819 253.194 477.339 252.714 477.339 252.09C477.339 251.466 477.819 250.97 478.443 250.97C479.067 250.97 479.563 251.466 479.563 252.09C479.563 252.714 479.067 253.194 478.443 253.194Z" fill="black"/>
<path d="M201.865 185.715L225.532 147.143H178.198L201.865 185.715Z" fill="black"/>
<path d="M240.021 134.285L263.688 172.857H216.354L240.021 134.285Z" fill="black"/>
<path d="M278.177 185.715L301.844 147.143H254.51L278.177 185.715Z" fill="black"/>
<path d="M316.333 134.285L340 172.857H292.666L316.333 134.285Z" fill="black"/>
</g>
<defs>
<filter id="filter0_f_2_241" x="263.515" y="-460" width="800" height="800" filterUnits="userSpaceOnUse" color-interpolation-filters="sRGB">
<feFlood flood-opacity="0" result="BackgroundImageFix"/>
<feBlend mode="normal" in="SourceGraphic" in2="BackgroundImageFix" result="shape"/>
<feGaussianBlur stdDeviation="120" result="effect1_foregroundBlur_2_241"/>
</filter>
<filter id="filter1_f_2_241" x="-376.485" y="-187" width="800" height="800" filterUnits="userSpaceOnUse" color-interpolation-filters="sRGB">
<feFlood flood-opacity="0" result="BackgroundImageFix"/>
<feBlend mode="normal" in="SourceGraphic" in2="BackgroundImageFix" result="shape"/>
<feGaussianBlur stdDeviation="120" result="effect1_foregroundBlur_2_241"/>
</filter>
<filter id="filter2_f_2_241" x="263.515" y="80" width="800" height="800" filterUnits="userSpaceOnUse" color-interpolation-filters="sRGB">
<feFlood flood-opacity="0" result="BackgroundImageFix"/>
<feBlend mode="normal" in="SourceGraphic" in2="BackgroundImageFix" result="shape"/>
<feGaussianBlur stdDeviation="120" result="effect1_foregroundBlur_2_241"/>
</filter>
<filter id="filter3_f_2_241" x="-376.485" y="13" width="800" height="800" filterUnits="userSpaceOnUse" color-interpolation-filters="sRGB">
<feFlood flood-opacity="0" result="BackgroundImageFix"/>
<feBlend mode="normal" in="SourceGraphic" in2="BackgroundImageFix" result="shape"/>
<feGaussianBlur stdDeviation="120" result="effect1_foregroundBlur_2_241"/>
</filter>
<linearGradient id="paint0_linear_2_241" x1="3.51466" y1="320" x2="714.299" y2="26.0793" gradientUnits="userSpaceOnUse">
<stop stop-color="#18E299" stop-opacity="0.09"/>
<stop offset="0.729167" stop-color="#0D9373" stop-opacity="0.08"/>
</linearGradient>
<radialGradient id="paint1_radial_2_241" cx="0" cy="0" r="1" gradientUnits="userSpaceOnUse" gradientTransform="translate(nan nan) rotate(nan) scale(nan nan)">
<stop offset="0.348958" stop-color="#84FFD3"/>
<stop offset="0.880208" stop-color="#18E299" stop-opacity="0"/>
</radialGradient>
<radialGradient id="paint2_radial_2_241" cx="0" cy="0" r="1" gradientUnits="userSpaceOnUse" gradientTransform="translate(nan nan) rotate(nan) scale(nan nan)">
<stop offset="0.348958" stop-color="#84FFD3"/>
<stop offset="0.880208" stop-color="#18E299" stop-opacity="0"/>
</radialGradient>
<radialGradient id="paint3_radial_2_241" cx="0" cy="0" r="1" gradientUnits="userSpaceOnUse" gradientTransform="translate(nan nan) rotate(nan) scale(nan nan)">
<stop offset="0.348958" stop-color="#84FFD3"/>
<stop offset="0.880208" stop-color="#18E299" stop-opacity="0"/>
</radialGradient>
<radialGradient id="paint4_radial_2_241" cx="0" cy="0" r="1" gradientUnits="userSpaceOnUse" gradientTransform="translate(nan nan) rotate(nan) scale(nan nan)">
<stop offset="0.348958" stop-color="#84FFD3"/>
<stop offset="0.880208" stop-color="#18E299" stop-opacity="0"/>
</radialGradient>
<radialGradient id="paint5_radial_2_241" cx="0" cy="0" r="1" gradientUnits="userSpaceOnUse" gradientTransform="translate(nan nan) rotate(nan) scale(nan nan)">
<stop offset="0.348958" stop-color="#84FFD3"/>
<stop offset="0.880208" stop-color="#18E299" stop-opacity="0"/>
</radialGradient>
<radialGradient id="paint6_radial_2_241" cx="0" cy="0" r="1" gradientUnits="userSpaceOnUse" gradientTransform="translate(nan nan) rotate(nan) scale(nan nan)">
<stop offset="0.348958" stop-color="#84FFD3"/>
<stop offset="0.880208" stop-color="#18E299" stop-opacity="0"/>
</radialGradient>
<radialGradient id="paint7_radial_2_241" cx="0" cy="0" r="1" gradientUnits="userSpaceOnUse" gradientTransform="translate(nan nan) rotate(nan) scale(nan nan)">
<stop offset="0.348958" stop-color="#84FFD3"/>
<stop offset="0.880208" stop-color="#18E299" stop-opacity="0"/>
</radialGradient>
<radialGradient id="paint8_radial_2_241" cx="0" cy="0" r="1" gradientUnits="userSpaceOnUse" gradientTransform="translate(nan nan) rotate(nan) scale(nan nan)">
<stop offset="0.348958" stop-color="#84FFD3"/>
<stop offset="0.880208" stop-color="#18E299" stop-opacity="0"/>
</radialGradient>
<linearGradient id="paint9_linear_2_241" x1="nan" y1="nan" x2="nan" y2="nan" gradientUnits="userSpaceOnUse">
<stop stop-color="white" stop-opacity="0.1"/>
<stop offset="0.5" stop-color="white"/>
<stop offset="1" stop-color="white" stop-opacity="0.1"/>
</linearGradient>
<linearGradient id="paint10_linear_2_241" x1="514.515" y1="-1" x2="192.515" y2="321" gradientUnits="userSpaceOnUse">
<stop stop-color="white" stop-opacity="0.1"/>
<stop offset="0.5" stop-color="white"/>
<stop offset="1" stop-color="white" stop-opacity="0.1"/>
</linearGradient>
<linearGradient id="paint11_linear_2_241" x1="514.515" y1="321" x2="192.515" y2="-1" gradientUnits="userSpaceOnUse">
<stop stop-color="white" stop-opacity="0.1"/>
<stop offset="0.5" stop-color="white"/>
<stop offset="1" stop-color="white" stop-opacity="0.1"/>
</linearGradient>
<clipPath id="clip0_2_241">
<rect width="700" height="320" fill="white"/>
</clipPath>
</defs>
</svg>
